<svg width="120" height="121" fill="none" xmlns="http://www.w3.org/2000/svg"><rect y=".529" width="120" height="120" rx="60" fill="#FDF3F5"/><g clip-path="url(#clip0_153_648)" fill="#E55670" stroke="#fff" stroke-width=".343"><path d="M78.32 78.069c-.58-.134-1.128-.26-1.64-.386-.134-.033-.193-.096-.207-.118V72.63a19.952 19.952 0 001.896-1.666c2.019-2.015 3.502-4.345 4.378-6.826 3.245-2.113 4.825-5.559 4.825-10.524 0-5.062-1.256-9.665-3.632-13.31a.88.88 0 00-1.472.96c2.189 3.359 3.346 7.63 3.346 12.35 0 3.289-.765 5.792-2.326 7.58.121-.788.183-1.584.183-2.384 0-6.998-1.402-11.898-4.287-14.98-2.348-2.51-5.617-3.73-9.994-3.73h-.02c-9.527.009-14.357 6.304-14.357 18.71 0 .8.062 1.596.183 2.384-1.56-1.788-2.325-4.291-2.325-7.58 0-13.324 8.273-19.287 16.47-19.287 4.24 0 7.824 1.338 10.653 3.976a.879.879 0 101.199-1.285c-3.12-2.91-7.218-4.45-11.851-4.45-5.624 0-10.338 2.21-13.632 6.39-2.964 3.761-4.597 8.966-4.597 14.656 0 4.965 1.58 8.412 4.825 10.525a17.435 17.435 0 001.827 3.69l-4.07 2.35a2.985 2.985 0 00-2.767-.7l-3.144.815-.137-.238a1.872 1.872 0 00-2.555-.685l-2.502 1.445a7.321 7.321 0 00-2.57 2.501 5.51 5.51 0 01-2.568 2.206l-1.097.463a.879.879 0 00.683 1.62l1.098-.464a7.258 7.258 0 003.382-2.905 5.56 5.56 0 011.951-1.899l2.502-1.444a.113.113 0 01.154.041l4.009 6.944a.113.113 0 01-.041.154l-2.502 1.444a5.556 5.556 0 01-2.62.74 7.257 7.257 0 00-4.207 1.477l-5.144 3.893a.711.711 0 01-1.045-.211l-2.722-4.715a.712.712 0 01.34-1.011l1.068-.45a.879.879 0 10-.684-1.62l-1.068.45a2.47 2.47 0 00-1.178 3.51l2.722 4.715a2.47 2.47 0 003.629.734l5.142-3.893a5.51 5.51 0 013.195-1.121 7.321 7.321 0 003.45-.975l2.503-1.445A1.873 1.873 0 0051.656 77l-.137-.237 2.278-2.316a2.985 2.985 0 00.777-2.746l4.223-2.438a19.88 19.88 0 003.415 3.368v4.933c-.014.022-.074.085-.207.118-.513.126-1.061.252-1.641.386-4.929 1.134-11.679 2.687-11.679 8.171v.578c0 .92.83 1.67 1.85 1.67H88.15c1.02 0 1.85-.75 1.85-1.67v-.578c0-5.484-6.751-7.037-11.68-8.171zm-25.776-4.854l-1.937 1.969-1.91-3.31 2.672-.693c1.191-.308 2.039 1.156 1.175 2.034zm4.34-17.467c3.727-1.072 8.019-1.637 12.458-1.637 4.445 0 8.738.567 12.465 1.64.046.638.078 1.297.094 1.978l-2.412 1.608a3.246 3.246 0 01-1.803.545h-3.652a1.877 1.877 0 01-1.7-1.09l-.329-.718c-1.04-2.268-4.28-2.277-5.327.002l-.326.714a1.878 1.878 0 01-1.702 1.092H61a3.246 3.246 0 01-1.803-.545l-2.411-1.608c.016-.682.05-1.342.099-1.981zm3.854-10.704c2.051-2.14 4.875-3.181 8.633-3.184h.019c3.864 0 6.713 1.037 8.711 3.172 1.829 1.954 3.005 4.918 3.517 8.843-3.721-.997-7.934-1.522-12.276-1.522-4.333 0-8.54.523-12.26 1.517.536-3.89 1.76-6.848 3.656-8.826zm-.397 23.329l.55-.318a.879.879 0 10-.88-1.522l-.717.414c-1.189-1.806-2.268-4.196-2.483-7.088l1.41.941a5 5 0 002.778.84h3.651c1.414 0 2.676-.846 3.3-2.118.268-.547.32-.93.758-1.212.61-.39 1.407-.14 1.7.496l.327.718a3.64 3.64 0 003.3 2.116h3.651c.99 0 1.95-.29 2.778-.84l1.41-.94c-.357 4.784-3.079 8.196-4.747 9.86-2.856 2.85-6.038 4.149-7.785 4.149-1.747 0-4.928-1.298-7.785-4.148a17.772 17.772 0 01-1.216-1.348zm27.901 18.343a.285.285 0 01-.092.014H50.535a.285.285 0 01-.092-.014v-.476c0-4.085 5.72-5.4 10.315-6.458a108.31 108.31 0 001.669-.393c.908-.225 1.543-.97 1.543-1.813v-3.74c1.883 1.134 3.788 1.79 5.372 1.79s3.49-.656 5.373-1.79v3.74c0 .842.634 1.588 1.543 1.813.526.13 1.08.258 1.667.393 4.597 1.057 10.317 2.373 10.317 6.458v.476h0z"/><path d="M72.802 67.143a.879.879 0 10-.754-1.588c-1.82.864-3.591.864-5.412 0a.879.879 0 10-.753 1.588c1.147.545 2.303.817 3.46.817 1.155 0 2.31-.272 3.459-.817zm-37.49-3.687c1.863.617 2.58 1.334 3.197 3.197.209.63.77 1.037 1.432 1.037a1.49 1.49 0 001.433-1.037c.616-1.863 1.333-2.58 3.197-3.197a1.489 1.489 0 001.037-1.432 1.49 1.49 0 00-1.037-1.433c-1.864-.616-2.58-1.333-3.197-3.196a1.489 1.489 0 00-1.433-1.038c-.661 0-1.223.407-1.432 1.038-.617 1.863-1.334 2.58-3.197 3.196a1.49 1.49 0 00-1.037 1.433c0 .661.407 1.224 1.037 1.432zm4.63-4.859c.699 1.749 1.677 2.727 3.426 3.427-1.749.7-2.727 1.678-3.427 3.426-.7-1.748-1.678-2.727-3.426-3.426 1.748-.7 2.727-1.678 3.426-3.427zm.028-9.885c1.834.543 2.38 1.089 2.923 2.922.16.543.65.908 1.215.908.565 0 1.053-.365 1.214-.908.543-1.833 1.09-2.379 2.922-2.922a1.26 1.26 0 00.909-1.215 1.26 1.26 0 00-.908-1.215c-1.834-.543-2.38-1.089-2.923-2.922a1.259 1.259 0 00-1.214-.908 1.26 1.26 0 00-1.215.908c-.543 1.833-1.09 2.38-2.922 2.922a1.26 1.26 0 00-.908 1.215c0 .566.364 1.054.908 1.215zm4.138-3.57c.522 1.128 1.227 1.833 2.355 2.355-1.128.522-1.834 1.227-2.355 2.355-.522-1.128-1.227-1.833-2.356-2.355 1.129-.522 1.834-1.227 2.356-2.355z"/></g><defs><clipPath id="clip0_153_648"><path fill="#fff" transform="translate(30 30.529)" d="M0 0h60v60H0z"/></clipPath></defs></svg>