<svg width="120" height="121" fill="none" xmlns="http://www.w3.org/2000/svg"><rect y=".529" width="120" height="120" rx="60" fill="#FDF3F5"/><g clip-path="url(#clip0_153_626)" fill="#E55670" stroke="#fff" stroke-width=".343"><path d="M85.537 42.565c.164.218.325.445.477.674a.878.878 0 101.464-.972 15.251 15.251 0 00-.539-.761.879.879 0 00-1.402 1.06zm-2.683-2.662c.38.282.747.587 1.094.907a.876.876 0 001.242-.05.88.88 0 00-.05-1.241 14.875 14.875 0 00-1.239-1.028.879.879 0 10-1.047 1.412zm-2.77-1.578c.251.105.503.22.749.342a.876.876 0 001.178-.398.88.88 0 00-.398-1.177 15.284 15.284 0 00-.848-.388.879.879 0 10-.681 1.62zm-27.88 21.651a.879.879 0 00-1.735-.282 2.797 2.797 0 01-2.773 2.356 2.797 2.797 0 01-2.774-2.356.88.88 0 00-1.735.282 4.548 4.548 0 004.509 3.832 4.548 4.548 0 004.508-3.832zm14.939-1.008a.878.878 0 00-1.009.726 2.797 2.797 0 01-2.773 2.356 2.797 2.797 0 01-2.774-2.356.879.879 0 00-1.735.282 4.548 4.548 0 004.509 3.832 4.548 4.548 0 004.509-3.832.88.88 0 00-.727-1.008zM58.28 73.7a2.797 2.797 0 01-2.773 2.357 2.797 2.797 0 01-2.774-2.356.878.878 0 10-1.735.281 4.548 4.548 0 004.509 3.833 4.548 4.548 0 004.509-3.833.879.879 0 10-1.736-.281zm-6.149-6.213a.88.88 0 00.425.6l2.512 1.45a.878.878 0 10.879-1.522l-1.62-.934 1.862-2.295a.879.879 0 10-1.364-1.108l-2.512 3.095a.88.88 0 00-.182.714zm-10.182-1.072l-1.172 2.696a.879.879 0 101.612.7l1.172-2.695a.879.879 0 10-1.612-.7zm3.515 0l-1.172 2.696a.879.879 0 101.612.7l1.172-2.695a.879.879 0 10-1.612-.7zm3.516 0l-1.172 2.696a.879.879 0 001.612.7l1.172-2.695a.879.879 0 10-1.612-.7zm12.657 0l-1.172 2.696a.879.879 0 101.612.7l1.172-2.695a.879.879 0 10-1.612-.7zm4.672-.455a.878.878 0 00-1.157.455l-1.172 2.696a.879.879 0 101.612.7l1.172-2.695a.879.879 0 00-.455-1.156zm1.642 4.307a.88.88 0 001.156-.456l1.172-2.695a.879.879 0 10-1.612-.7l-1.171 2.695a.879.879 0 00.455 1.156zm-32.186 6.527H34.2V75.23a.879.879 0 10-1.758 0v1.564h-1.564a.879.879 0 100 1.758h1.564v1.564a.879.879 0 101.758 0v-1.564h1.564a.879.879 0 100-1.758zm10.641-38.437h1.564v1.564a.879.879 0 101.758 0v-1.564h1.564a.879.879 0 100-1.758h-1.564v-1.564a.879.879 0 10-1.758 0v1.564h-1.564a.879.879 0 100 1.758zm28.668 6.379a.879.879 0 00-.879.879v5.016c0 .486.394.88.88.88h3.936a.879.879 0 100-1.759h-3.058v-4.137a.879.879 0 00-.879-.88z"/><path d="M88.884 44.922a.879.879 0 10-1.627.664 13.271 13.271 0 01.718 7.668 13.29 13.29 0 01-5.278 8.181 13.289 13.289 0 01-8.589 2.49v-3.637c.318.032.64.048.966.048 5.352 0 9.705-4.353 9.705-9.705 0-5.351-4.353-9.705-9.705-9.705-.567 0-1.145.052-1.718.155a.879.879 0 00.31 1.73 8.026 8.026 0 011.408-.127c4.382 0 7.947 3.565 7.947 7.947s-3.565 7.948-7.947 7.948-7.947-3.566-7.947-7.948a7.889 7.889 0 013.153-6.337.879.879 0 10-1.062-1.401 9.759 9.759 0 00-2.373 2.581 18.618 18.618 0 00-3.203-1.998 13.468 13.468 0 015.518-4.895 13.188 13.188 0 016.394-1.286l-.47.374a.879.879 0 001.096 1.375l2.088-1.664a.879.879 0 00.14-1.235l-1.664-2.088a.879.879 0 10-1.375 1.095l.31.39a14.933 14.933 0 00-7.278 1.453 15.235 15.235 0 00-6.393 5.78 18.416 18.416 0 00-4.327-1.048.879.879 0 10-.204 1.746 16.693 16.693 0 018.56 3.599 9.722 9.722 0 00-.668 3.56c0 4.404 2.95 8.13 6.978 9.312l.003.237v8.572c0 3.112-.85 6.108-2.468 8.743l-.992-1.812a1.261 1.261 0 00-1.106-.656s0 0 0 0a1.26 1.26 0 00-1.107.656l-1.534 2.806-2.806 1.534a1.261 1.261 0 000 2.213l1.77.969a16.631 16.631 0 01-8.579 2.369c-4.474 0-8.693-1.756-11.88-4.943-3.187-3.187-4.942-7.406-4.942-11.88v-2.194a.879.879 0 10-1.758 0v2.194c0 4.944 1.938 9.604 5.457 13.123 3.52 3.519 8.18 5.457 13.123 5.457 3.556 0 6.981-1.006 9.966-2.918l1.183 2.163a1.26 1.26 0 001.107.656h0a1.26 1.26 0 001.106-.656l1.535-2.805 2.806-1.535a1.26 1.26 0 000-2.213l-2.133-1.166a18.371 18.371 0 003.01-10.106v-3.067a15.049 15.049 0 009.615-2.824 15.043 15.043 0 005.975-9.259c.592-2.926.31-5.927-.814-8.68zM71.591 81.13l-2.136 1.168a1.25 1.25 0 00-.502.502l-1.17 2.136-1.168-2.137a1.257 1.257 0 00-.501-.5l-2.137-1.17 2.137-1.168a1.26 1.26 0 00.501-.502l1.169-2.137 1.168 2.137c.116.212.29.386.502.502l2.137 1.168zM37.827 63.336a.879.879 0 00.879-.88v-2.275c0-3.3.95-6.456 2.758-9.197l1.19 2.176a1.26 1.26 0 001.106.657h0a1.26 1.26 0 001.107-.657l1.534-2.805 2.806-1.535a1.261 1.261 0 000-2.213l-1.94-1.061a16.78 16.78 0 016.312-2.073.879.879 0 10-.203-1.746 18.557 18.557 0 00-7.412 2.545l-1.097-2.005a1.261 1.261 0 00-1.106-.657s0 0 0 0a1.26 1.26 0 00-1.107.657l-1.535 2.805-2.805 1.535a1.261 1.261 0 000 2.213l1.817.994a18.348 18.348 0 00-3.183 10.367v2.276a.88.88 0 00.879.879zm2.126-15.622l2.136-1.169c.213-.116.386-.29.503-.502l1.168-2.137 1.169 2.137c.116.212.29.386.502.502l2.136 1.169-2.137 1.168c-.212.116-.385.29-.5.502l-1.17 2.137-1.169-2.138a1.26 1.26 0 00-.5-.5l-2.138-1.17z"/></g><defs><clipPath id="clip0_153_626"><path fill="#fff" transform="translate(30 30.529)" d="M0 0h60v60H0z"/></clipPath></defs></svg>