<svg width="120" height="121" fill="none" xmlns="http://www.w3.org/2000/svg"><rect y=".529" width="120" height="120" rx="60" fill="#FDF3F5"/><path d="M83.438 38.029H78.75v-1.875a3.75 3.75 0 10-7.5 0v1.875h-7.5v-1.875a3.75 3.75 0 10-7.5 0v1.875h-7.5v-1.875a3.75 3.75 0 10-7.5 0v1.875h-4.688a4.688 4.688 0 00-4.687 4.687v37.5a4.688 4.688 0 004.688 4.688h26.25a.938.938 0 000-1.875h-26.25a2.82 2.82 0 01-2.813-2.813V51.154h52.5V67.09a.937.937 0 101.875 0V42.716a4.688 4.688 0 00-4.688-4.687zm-10.313-1.875a1.875 1.875 0 113.75 0v5.625a1.875 1.875 0 11-3.75 0v-5.625zm-15 0a1.875 1.875 0 113.75 0v5.625a1.875 1.875 0 11-3.75 0v-5.625zm-15 0a1.875 1.875 0 113.75 0v5.625a1.875 1.875 0 11-3.75 0v-5.625zM86.25 49.279h-52.5v-6.563a2.821 2.821 0 012.813-2.812h4.687v1.875a3.75 3.75 0 007.5 0v-1.875h7.5v1.875a3.75 3.75 0 007.5 0v-1.875h7.5v1.875a3.75 3.75 0 007.5 0v-1.875h4.688a2.821 2.821 0 012.812 2.812v6.563z" fill="#E55670" stroke="#fff" stroke-width=".429"/><path d="M58.125 57.716a1.875 1.875 0 00-1.875-1.875H52.5a1.875 1.875 0 00-1.875 1.875v2.813a1.875 1.875 0 001.875 1.875h3.75a1.875 1.875 0 001.875-1.875v-2.813zM52.5 60.53v-2.813h3.75v2.813H52.5zm-5.625-2.814A1.875 1.875 0 0045 55.841h-3.75a1.875 1.875 0 00-1.875 1.875v2.813a1.875 1.875 0 001.875 1.875H45a1.875 1.875 0 001.875-1.875v-2.813zM41.25 60.53v-2.813H45v2.813h-3.75zm37.5 1.874a1.875 1.875 0 001.875-1.875v-2.813a1.875 1.875 0 00-1.875-1.875H75a1.875 1.875 0 00-1.875 1.875v2.813A1.875 1.875 0 0075 62.404h3.75zM75 57.716h3.75v2.813H75v-2.813zm-16.875 8.438a1.875 1.875 0 00-1.875-1.875H52.5a1.875 1.875 0 00-1.875 1.875v2.812a1.875 1.875 0 001.875 1.875h3.75a1.875 1.875 0 001.875-1.875v-2.812zM52.5 68.966v-2.812h3.75v2.812H52.5zm-5.625-2.812A1.875 1.875 0 0045 64.279h-3.75a1.875 1.875 0 00-1.875 1.875v2.812a1.875 1.875 0 001.875 1.875H45a1.875 1.875 0 001.875-1.875v-2.812zm-5.625 2.812v-2.812H45v2.812h-3.75zm15 3.75H52.5a1.875 1.875 0 00-1.875 1.875v2.813a1.875 1.875 0 001.875 1.875h3.75a1.875 1.875 0 001.875-1.875V74.59a1.875 1.875 0 00-1.875-1.875zm-3.75 4.688V74.59h3.75v2.813H52.5zm11.25-15h3.75a1.875 1.875 0 001.875-1.875v-2.813a1.875 1.875 0 00-1.875-1.875h-3.75a1.875 1.875 0 00-1.875 1.875v2.813a1.875 1.875 0 001.875 1.875zm0-4.688h3.75v2.813h-3.75v-2.813zm-1.875 11.25a1.875 1.875 0 001.875 1.875.938.938 0 000-1.875v-2.812h3.75a.938.938 0 000-1.875h-3.75a1.875 1.875 0 00-1.875 1.875v2.812zM45 72.716h-3.75a1.875 1.875 0 00-1.875 1.875v2.813a1.875 1.875 0 001.875 1.875H45a1.875 1.875 0 001.875-1.875V74.59A1.875 1.875 0 0045 72.716zm-3.75 4.688V74.59H45v2.813h-3.75z" fill="#E55670" stroke="#fff" stroke-width=".429"/><path d="M75.938 64.279a12.187 12.187 0 1012.187 12.187A12.201 12.201 0 0075.937 64.28zm0 22.5A10.312 10.312 0 1186.25 76.466 10.324 10.324 0 0175.937 86.78z" fill="#E55670" stroke="#fff" stroke-width=".429"/><path d="M81.354 72.536l-7.291 7.292-3.314-3.315a.937.937 0 00-1.326 1.326l3.977 3.978a.938.938 0 001.325 0l7.955-7.955a.938.938 0 00-1.326-1.326z" fill="#E55670" stroke="#fff" stroke-width=".429"/></svg>