<svg width="150" height="151" fill="none" xmlns="http://www.w3.org/2000/svg"><rect y=".661" width="150" height="150" rx="75" fill="#E55670" fill-opacity=".05"/><g clip-path="url(#clip0_66_461)"><mask id="a" fill="#fff"><path d="M108.833 95.494a1.167 1.167 0 000-2.333h-1.167a1.166 1.166 0 10-2.333 0H86.667a1.167 1.167 0 10-2.333 0h-1.167a1.167 1.167 0 100 2.333h1.167v3.5h-1.167a1.167 1.167 0 100 2.333h1.167v1.167h-1.167a1.166 1.166 0 100 2.333h1.167v3.5H64.5v-9.652a11.54 11.54 0 005.654 1.486c6.626-.096 11.924-5.535 11.846-12.16a12.149 12.149 0 00-6.643-10.925 10.648 10.648 0 002.067-6.35 10.533 10.533 0 00-8.434-10.407A9.023 9.023 0 0061 47.572c-.034 0-.068.005-.102.005a8.163 8.163 0 00-16.162.188 5.834 5.834 0 001.098 11.563h6.8c.106.336.23.665.374.986a10.538 10.538 0 00-8.43 10.412 10.65 10.65 0 002.066 6.35A12.15 12.15 0 0040 88.001c-.078 6.625 5.22 12.064 11.846 12.16a11.538 11.538 0 005.654-1.486v9.652H41.168a1.166 1.166 0 100 2.333h67.665a1.167 1.167 0 100-2.333h-1.167v-3.5h1.167a1.167 1.167 0 100-2.333h-1.167v-1.167h1.167a1.167 1.167 0 100-2.333h-1.167v-3.5h1.167zM52.206 56.592c0 .135.015.268.021.403h-6.393a3.5 3.5 0 010-7 1.166 1.166 0 001.167-1.167 5.822 5.822 0 0111.575-.9 9 9 0 00-6.37 8.664zm9.961 51.735h-2.333V96.96c.418-.39.808-.808 1.166-1.253.36.445.749.864 1.167 1.253v11.367zm.142-14.825l7.683-7.683a1.167 1.167 0 00-1.65-1.65l-6.175 6.175V78.478l5.492-5.492a1.167 1.167 0 00-1.65-1.65l-3.842 3.842v-5.35a1.167 1.167 0 00-2.333 0v5.35l-3.842-3.842a1.167 1.167 0 00-1.65 1.65l5.492 5.492v11.867l-6.175-6.175a1.167 1.167 0 00-1.65 1.65l7.683 7.682a9.34 9.34 0 01-7.846 4.326A9.684 9.684 0 0142.334 88a9.766 9.766 0 016.614-9.358 1.166 1.166 0 00.452-1.94 8.313 8.313 0 01-2.49-5.977 8.125 8.125 0 017.896-8.261c.481.042.941-.207 1.169-.634.199-.392.16-.863-.1-1.217a6.761 6.761 0 01-1.336-4.023A6.584 6.584 0 0161 49.905a6.584 6.584 0 016.462 6.686 6.761 6.761 0 01-1.336 4.023 1.16 1.16 0 00-.082 1.216c.206.394.614.64 1.059.64a8.135 8.135 0 017.987 8.256 8.313 8.313 0 01-2.49 5.978 1.166 1.166 0 00.453 1.939 9.872 9.872 0 01-2.899 19.184 9.34 9.34 0 01-7.845-4.325zm43.024 14.825H86.667v-3.5h18.666v3.5zm0-5.833H86.667v-1.167h18.666v1.167zm0-3.5H86.667v-3.5h18.666v3.5z"/></mask><path d="M108.833 95.494a1.167 1.167 0 000-2.333h-1.167a1.166 1.166 0 10-2.333 0H86.667a1.167 1.167 0 10-2.333 0h-1.167a1.167 1.167 0 100 2.333h1.167v3.5h-1.167a1.167 1.167 0 100 2.333h1.167v1.167h-1.167a1.166 1.166 0 100 2.333h1.167v3.5H64.5v-9.652a11.54 11.54 0 005.654 1.486c6.626-.096 11.924-5.535 11.846-12.16a12.149 12.149 0 00-6.643-10.925 10.648 10.648 0 002.067-6.35 10.533 10.533 0 00-8.434-10.407A9.023 9.023 0 0061 47.572c-.034 0-.068.005-.102.005a8.163 8.163 0 00-16.162.188 5.834 5.834 0 001.098 11.563h6.8c.106.336.23.665.374.986a10.538 10.538 0 00-8.43 10.412 10.65 10.65 0 002.066 6.35A12.15 12.15 0 0040 88.001c-.078 6.625 5.22 12.064 11.846 12.16a11.538 11.538 0 005.654-1.486v9.652H41.168a1.166 1.166 0 100 2.333h67.665a1.167 1.167 0 100-2.333h-1.167v-3.5h1.167a1.167 1.167 0 100-2.333h-1.167v-1.167h1.167a1.167 1.167 0 100-2.333h-1.167v-3.5h1.167zM52.206 56.592c0 .135.015.268.021.403h-6.393a3.5 3.5 0 010-7 1.166 1.166 0 001.167-1.167 5.822 5.822 0 0111.575-.9 9 9 0 00-6.37 8.664zm9.961 51.735h-2.333V96.96c.418-.39.808-.808 1.166-1.253.36.445.749.864 1.167 1.253v11.367zm.142-14.825l7.683-7.683a1.167 1.167 0 00-1.65-1.65l-6.175 6.175V78.478l5.492-5.492a1.167 1.167 0 00-1.65-1.65l-3.842 3.842v-5.35a1.167 1.167 0 00-2.333 0v5.35l-3.842-3.842a1.167 1.167 0 00-1.65 1.65l5.492 5.492v11.867l-6.175-6.175a1.167 1.167 0 00-1.65 1.65l7.683 7.682a9.34 9.34 0 01-7.846 4.326A9.684 9.684 0 0142.334 88a9.766 9.766 0 016.614-9.358 1.166 1.166 0 00.452-1.94 8.313 8.313 0 01-2.49-5.977 8.125 8.125 0 017.896-8.261c.481.042.941-.207 1.169-.634.199-.392.16-.863-.1-1.217a6.761 6.761 0 01-1.336-4.023A6.584 6.584 0 0161 49.905a6.584 6.584 0 016.462 6.686 6.761 6.761 0 01-1.336 4.023 1.16 1.16 0 00-.082 1.216c.206.394.614.64 1.059.64a8.135 8.135 0 017.987 8.256 8.313 8.313 0 01-2.49 5.978 1.166 1.166 0 00.453 1.939 9.872 9.872 0 01-2.899 19.184 9.34 9.34 0 01-7.845-4.325zm43.024 14.825H86.667v-3.5h18.666v3.5zm0-5.833H86.667v-1.167h18.666v1.167zm0-3.5H86.667v-3.5h18.666v3.5z" fill="#E55670" stroke="#FDF3F5" mask="url(#a)"/><path d="M105.016 58.298l.024.179.177.034a5.584 5.584 0 01-1.05 11.067h-14a5.583 5.583 0 01-1.05-11.067l.176-.034.024-.18a7.917 7.917 0 0115.699 0zm-14.85 1.947h0a3.75 3.75 0 10.001 7.5h14a3.75 3.75 0 000-7.5.915.915 0 01-.917-.917v0a6.083 6.083 0 00-12.166 0 .917.917 0 01-.917.917z" fill="#E55670" stroke="#FDF3F5" stroke-width=".5"/></g><defs><clipPath id="clip0_66_461"><path fill="#fff" transform="translate(40 40.661)" d="M0 0h70v70H0z"/></clipPath></defs></svg>