<svg width="150" height="151" fill="none" xmlns="http://www.w3.org/2000/svg"><rect y=".661" width="150" height="150" rx="75" fill="#E55670" fill-opacity=".05"/><g clip-path="url(#clip0_66_484)"><path d="M108.55 60.381l-9.29-2.737a1.025 1.025 0 10-.58 1.967l9.192 2.71-3.773 1.111-28.178-2.322a1.025 1.025 0 10-.169 2.044l22.89 1.886-22.994 6.775a2.286 2.286 0 01-1.296 0l-9-2.651a1.025 1.025 0 00-.579 1.967l9 2.651a4.341 4.341 0 002.455 0l16.365-4.822v4.227c-2.933 1.93-8.8 4.824-17.592 4.824-8.795 0-14.66-2.895-17.594-4.824V68.96l3 .885a1.026 1.026 0 00.58-1.967l-18.86-5.559 32.225-9.495a2.286 2.286 0 011.296 0l18.587 5.477a1.026 1.026 0 00.58-1.967l-18.587-5.477a4.337 4.337 0 00-2.456 0L41.45 60.38A2.007 2.007 0 0040 62.32c0 .904.583 1.683 1.45 1.938l13.906 4.098v9.175l-5.686-1.736h-.002c-2.213-.676-4.795 1.572-5.878 5.119-1.083 3.547-.198 6.854 2.016 7.53 0 0 0 0 0 0L85.35 100.52c.272.083.55.124.83.124.923 0 1.877-.442 2.757-1.292.992-.957 1.805-2.36 2.291-3.952.486-1.591.595-3.21.307-4.558-.333-1.56-1.158-2.616-2.322-2.972l-10.357-3.162c6.974-.592 11.659-2.681 14.002-4.007a3.518 3.518 0 001.786-3.06v-9.284l8.536-2.515v7.222a4.219 4.219 0 00-1.517 7.466c-.532.64-.866 1.446-1.075 2.184-.491 1.743-.579 3.968-.6 5.914a2.666 2.666 0 00.776 1.917 2.669 2.669 0 001.909.797h3.064c.723 0 1.401-.283 1.909-.797a2.665 2.665 0 00.776-1.917c-.021-1.946-.108-4.171-.6-5.914-.208-.738-.542-1.544-1.074-2.184a4.218 4.218 0 001.68-3.37 4.23 4.23 0 00-3.197-4.096v-7.827l3.319-.978A2.007 2.007 0 00110 62.32c0-.904-.583-1.683-1.45-1.939zM45.751 81.513c.826-2.704 2.49-4.01 3.318-3.757.653.199 1.074 1.36 1.024 2.822a1.025 1.025 0 102.05.07 7.64 7.64 0 00-.181-2.01l16.87 5.152.009.003c.829.253 1.478 2.266.653 4.97-.825 2.7-2.484 4.005-3.314 3.758l-16.889-5.157a7.794 7.794 0 001.457-1.864 1.025 1.025 0 10-1.778-1.02c-.894 1.556-1.967 2.185-2.566 2.003-.829-.254-1.478-2.267-.653-4.97zm43.779 9.756c.213.999.117 2.285-.263 3.53-.38 1.246-1.02 2.367-1.754 3.076-.572.552-1.157.806-1.564.682L69.056 93.4c1.008-.924 1.878-2.33 2.399-4.037.522-1.708.585-3.36.266-4.69l16.892 5.158c.409.125.75.663.917 1.44zm2.319-12.354C89.774 80.088 83.98 82.818 75 82.818c-.862 0-1.73-.026-2.582-.077l-14.904-4.55a1.458 1.458 0 01-.108-.55V75.6c3.406 2 9.287 4.461 17.594 4.461 8.306 0 14.187-2.462 17.592-4.462v2.04c0 .527-.285 1.015-.744 1.275zm14.522 9.734a.628.628 0 01-.183.452.629.629 0 01-.45.188h-3.065a.631.631 0 01-.634-.64c.037-3.383.315-7.267 2.166-7.267s2.13 3.883 2.166 7.267zm.007-11.49a2.175 2.175 0 01-2.173 2.172 2.175 2.175 0 01-2.172-2.172c0-1.198.975-2.172 2.172-2.172 1.198 0 2.173.974 2.173 2.172z" fill="#E55670" stroke="#FDF3F5" stroke-width=".5"/></g><defs><clipPath id="clip0_66_484"><path fill="#fff" transform="translate(40 40.661)" d="M0 0h70v70H0z"/></clipPath></defs></svg>