<svg width="150" height="151" fill="none" xmlns="http://www.w3.org/2000/svg"><rect y=".661" width="150" height="150" rx="75" fill="#E55670" fill-opacity=".05"/><path d="M108.359 80.185l-13.125-7.656a1.093 1.093 0 00-1.102 0L83.722 78.6c.01-.11.024-.219.024-.334v-4.553c.16-.138.307-.292.437-.459l1.584-2.112a6.334 6.334 0 001.264-3.779 4.77 4.77 0 00-1.015-2.928l.993-4.962a.947.947 0 00.022-.219 12.196 12.196 0 00-4.739-9.69 21.53 21.53 0 00-9.558-4.207 7.635 7.635 0 00-12.968 0 21.53 21.53 0 00-9.558 4.208 12.195 12.195 0 00-4.74 9.689c0 .073.007.147.023.219l.993 4.967a4.77 4.77 0 00-1.015 2.923 6.343 6.343 0 001.259 3.779l1.584 2.112c.131.166.278.32.438.458v4.553a3.959 3.959 0 003.957 3.958h5.434l1.525 1.524a7.656 7.656 0 01-7.635 7.226H50.61a9.516 9.516 0 00-9.515 9.515v7.985h2.187v-7.985a7.276 7.276 0 016.881-7.292l3.019 9.058a1.096 1.096 0 001.038.75h3.97l7.349 6.299a1.095 1.095 0 001.422 0l7.35-6.299h3.971a1.096 1.096 0 001.038-.748l2.469-7.406a14.233 14.233 0 005.735 6.335l1.696.984v6.304h2.187v-5.023l2.735 1.593a1.1 1.1 0 001.102 0l6.613-3.858a14.267 14.267 0 007.05-12.283V81.13a1.09 1.09 0 00-.547-.945zM52.391 64.932c-.24-.954-.36-1.934-.36-2.918v-.572a3.289 3.289 0 012.188-3.094v4.188a3.281 3.281 0 003.281 3.281h10.938a1.093 1.093 0 00.978-.604l1.209-2.419 1.209 2.419a1.093 1.093 0 00.978.605h.21a5.265 5.265 0 005.26-5.26v-2.21a3.287 3.287 0 012.187 3.095v.572c0 .983-.12 1.963-.36 2.917l-2.156 8.618a9.843 9.843 0 01-2.59 4.573l-4.287 4.289a6.828 6.828 0 01-9.656 0l-4.288-4.289a9.844 9.844 0 01-2.585-4.573l-2.156-8.618zm28.187 14.917a1.77 1.77 0 01-.79.187h-3.241l.366-.365a12.02 12.02 0 003.009-5.104h1.64v3.7a1.76 1.76 0 01-.984 1.582zM66.25 86.6a8.955 8.955 0 004.585-1.261 9.822 9.822 0 002.46 4.703l-.35.35a9.469 9.469 0 01-13.39 0l-.35-.35a9.822 9.822 0 002.46-4.703 8.955 8.955 0 004.585 1.26zm0 8.75a11.58 11.58 0 005.653-1.466l-5.653 12.02-5.653-12.02a11.58 11.58 0 005.653 1.466zm6.584-11.6l1.525-1.525h5.434a3.92 3.92 0 00.676-.079v6.758c.001.693.054 1.385.158 2.07h-.158a7.656 7.656 0 01-7.635-7.225zm11.187-13.92l-1.584 2.114a1.094 1.094 0 01-.874.437h-1.06l1.729-6.917c.059-.238.087-.482.134-.723a2.618 2.618 0 012.478 2.624 4.13 4.13 0 01-.823 2.465zM66.25 43.943a5.468 5.468 0 11-5.469 5.468 5.476 5.476 0 015.469-5.468zm-14.699 7.35A19.35 19.35 0 0158.77 47.8a7.658 7.658 0 0010.785 8.53 7.656 7.656 0 004.18-8.53 19.335 19.335 0 017.218 3.492 10.018 10.018 0 013.89 7.854l-.754 3.772a4.775 4.775 0 00-1.468-.345c.008-.187.035-.374.035-.562v-.569a5.475 5.475 0 00-5.469-5.468 1.094 1.094 0 00-1.093 1.094v3.49a3.078 3.078 0 01-2.625 3.04l-1.86-3.738a1.14 1.14 0 00-1.957 0l-1.89 3.77H57.5a1.094 1.094 0 01-1.094-1.094v-5.468a1.094 1.094 0 00-1.093-1.094 5.475 5.475 0 00-5.47 5.469v.572c0 .188.028.375.036.562-.505.036-1 .152-1.468.344l-.755-3.775a10.021 10.021 0 013.895-7.854zm-3.895 16.071a2.619 2.619 0 012.478-2.625c.047.24.075.485.134.723l1.73 6.918h-1.06a1.093 1.093 0 01-.876-.438l-1.584-2.113a4.136 4.136 0 01-.822-2.465zm5.051 12.672a1.78 1.78 0 01-1.507-.838 1.761 1.761 0 01-.263-.931v-3.7h1.641a12.021 12.021 0 003.007 5.104l.366.365h-3.244zm5.887 20.782h-3.587l-2.559-7.677a9.764 9.764 0 004.703-1.436l5.935 12.62-3.785-3.244a1.093 1.093 0 00-.707-.263zm18.899 0h-3.587c-.261 0-.514.093-.712.263l-3.784 3.244 5.934-12.62a9.764 9.764 0 004.704 1.436l-2.555 7.677zm29.226-11.915a12.079 12.079 0 01-5.97 10.39l-6.061 3.539-6.062-3.536a12.07 12.07 0 01-5.97-10.393v-7.145l12.031-7.018 12.032 7.018v7.145z" fill="#E55670" stroke="#FDF3F5" stroke-width=".8"/><path d="M89.992 86.92a1.093 1.093 0 00-1.547 0l-3.28 3.28a1.094 1.094 0 000 1.547l6.562 6.563a1.094 1.094 0 001.546 0l12.032-12.032a1.094 1.094 0 000-1.546l-3.282-3.281a1.093 1.093 0 00-1.546 0L92.5 89.427l-2.508-2.508zm11.258-3.15l1.735 1.735L92.5 95.99l-5.016-5.016 1.735-1.735 2.508 2.508a1.094 1.094 0 001.546 0l7.977-7.977zM65.156 52.692h2.188v-2.187h2.187v-2.188h-2.187V46.13h-2.188v2.187H62.97v2.188h2.187v2.187z" fill="#E55670" stroke="#FDF3F5" stroke-width=".8"/></svg>