<svg width="120" height="121" viewBox="0 0 120 121" fill="none" xmlns="http://www.w3.org/2000/svg">
<rect y="0.528809" width="120" height="120" rx="60" fill="#FDF3F5"/>
<g clip-path="url(#clip0_153_648)">
<path d="M78.3196 78.0686C77.7398 77.9352 77.1922 77.8092 76.6801 77.6829C76.5462 77.6497 76.4867 77.5867 76.4729 77.5647V72.6308C77.1265 72.1262 77.7638 71.5685 78.3688 70.9648C80.3878 68.9502 81.8706 66.6203 82.7471 64.1391C85.9924 62.0264 87.5718 58.5802 87.5718 53.6147C87.5718 48.5529 86.3162 43.9504 83.9404 40.305C83.6753 39.8983 83.1308 39.7837 82.7242 40.0485C82.3175 40.3136 82.2028 40.858 82.4677 41.2648C84.6568 44.624 85.8139 48.8945 85.8139 53.6147C85.8139 56.904 85.0489 59.4069 83.4881 61.1949C83.609 60.407 83.6715 59.611 83.6715 58.8113C83.6715 51.8132 82.2692 46.9129 79.3845 43.8306C77.0362 41.3215 73.7673 40.1018 69.3898 40.1018C69.3834 40.1018 69.3763 40.1018 69.3698 40.1018C59.8433 40.1099 55.0129 46.4046 55.0129 58.8113C55.0129 59.611 55.0754 60.407 55.1963 61.1949C53.636 59.4065 52.8711 56.9036 52.8711 53.6147C52.8711 40.2914 61.1436 34.3278 69.3419 34.3278C73.5812 34.3278 77.1651 35.6657 79.9937 38.3045C80.3489 38.6357 80.9049 38.6164 81.236 38.2613C81.567 37.9063 81.5477 37.3503 81.1928 37.0191C78.0726 34.1084 73.9747 32.5699 69.3419 32.5699C63.7179 32.5699 59.004 34.7793 55.7096 38.9592C52.7457 42.72 51.1133 47.9247 51.1133 53.6147C51.1133 58.5801 52.6926 62.0267 55.9378 64.14C56.3892 65.4176 57.0016 66.655 57.7651 67.8299L53.6955 70.1795C52.9653 69.5058 51.9247 69.2214 50.9282 69.4797L47.7842 70.2946L47.647 70.0568C47.1313 69.1639 45.9854 68.8568 45.0923 69.3724L42.5901 70.817C41.5421 71.4221 40.6533 72.287 40.0201 73.3181C39.4115 74.309 38.5235 75.0717 37.4524 75.5236L36.3551 75.9865C35.9079 76.1752 35.6982 76.6907 35.887 77.138C36.0755 77.5852 36.5915 77.7946 37.0383 77.6062L38.1356 77.1433C39.5466 76.548 40.7163 75.5434 41.5179 74.2382C41.9989 73.4553 42.6734 72.7988 43.4691 72.3394L45.9713 70.8948C46.025 70.8638 46.0938 70.8824 46.1248 70.936L50.134 77.8801C50.1651 77.9338 50.1466 78.0027 50.0929 78.0338L47.5908 79.4783C46.7953 79.9377 45.8892 80.1938 44.9706 80.2186C43.4396 80.2602 41.9848 80.7708 40.7636 81.6953L35.6205 85.5884C35.2796 85.8465 34.7894 85.7479 34.5752 85.3769L31.853 80.6621C31.6393 80.2919 31.7978 79.8175 32.1926 79.6508L33.2607 79.2001C33.7079 79.0115 33.9175 78.496 33.7287 78.0487C33.5399 77.6012 33.0243 77.3919 32.5772 77.5805L31.5092 78.0312C30.857 78.3065 30.3537 78.8492 30.1284 79.5203C29.903 80.1914 29.9767 80.9278 30.3308 81.5408L33.0529 86.2556C33.7927 87.537 35.4942 87.8887 36.6815 86.9898L41.8245 83.0969C42.7517 82.395 43.8561 82.0074 45.0185 81.9757C46.2282 81.9429 47.4216 81.6056 48.4696 81.0006L50.9717 79.556C51.8645 79.0405 52.1717 77.8946 51.6563 77.0014L51.5191 76.7637L53.7969 74.4483C54.5187 73.7145 54.7928 72.6712 54.5744 71.702L58.7969 69.2642C59.7861 70.511 60.9407 71.65 62.2122 72.6315V77.5648C62.1984 77.5868 62.1385 77.6499 62.0053 77.6828C61.4916 77.8095 60.9438 77.9355 60.3639 78.0689C55.4351 79.2031 48.6851 80.7562 48.6851 86.2401V86.8178C48.6851 87.7387 49.5152 88.4877 50.5355 88.4877H88.1496C89.1699 88.4877 89.9999 87.7385 89.9999 86.8178V86.2401C89.9999 80.7558 83.249 79.2027 78.3196 78.0686ZM52.5437 73.2154L50.607 75.1839L48.6962 71.8742L51.3692 71.1814C52.5602 70.873 53.4078 72.3371 52.5437 73.2154ZM56.884 55.748C60.6113 54.6765 64.9028 54.1108 69.3422 54.1108C73.7865 54.1108 78.0801 54.6776 81.8067 55.7508C81.8532 56.3885 81.8847 57.0478 81.9006 57.729L79.4893 59.3365C78.9526 59.6936 78.329 59.8824 77.6859 59.8824H74.0341C73.3051 59.8824 72.6372 59.4536 72.3332 58.7914L72.0054 58.0745C70.9649 55.8064 67.7244 55.7965 66.6783 58.0756L66.3517 58.7901C66.0472 59.4536 65.3793 59.8823 64.6503 59.8823H60.9986C60.3555 59.8823 59.7318 59.6936 59.1958 59.337L56.7845 57.7294C56.8013 57.0473 56.8348 56.3871 56.884 55.748ZM60.7383 45.0437C62.7895 42.9042 65.6133 41.8628 69.3714 41.8595H69.3896C73.2537 41.8595 76.1035 42.8972 78.1011 45.0317C79.9297 46.9855 81.1063 49.9498 81.6183 53.8746C77.8966 52.8781 73.684 52.3528 69.3422 52.3528C65.0089 52.3528 60.8023 52.8763 57.0829 53.8695C57.6183 49.9806 58.8413 47.0224 60.7383 45.0437ZM60.3407 68.3726L60.8903 68.0553C61.3107 67.8126 61.4547 67.275 61.212 66.8547C60.9693 66.4342 60.4315 66.2903 60.0114 66.533L59.2941 66.9471C58.1051 65.1412 57.0261 62.7515 56.8107 59.8595L58.2215 60.8001C59.0477 61.3496 60.0079 61.6402 60.9986 61.6402H64.6503C66.0642 61.6402 67.3263 60.7937 67.9499 59.5223C68.2184 58.9748 68.2703 58.5917 68.7081 58.3103C69.3183 57.9205 70.1153 58.1698 70.4074 58.8065L70.7351 59.5235C71.3254 60.8094 72.6203 61.6403 74.0342 61.6403H77.686C78.6766 61.6403 79.6369 61.3498 80.4637 60.7997L81.8738 59.8596C81.5173 64.6445 78.7953 68.0561 77.1271 69.7206C74.2709 72.5707 71.0894 73.8688 69.3422 73.8688C67.5951 73.8688 64.4136 72.5707 61.5574 69.7206C61.1907 69.3546 60.7729 68.9031 60.3407 68.3726ZM88.2421 86.7155C88.2197 86.7232 88.1887 86.7299 88.1496 86.7299H50.5355C50.4964 86.7299 50.4653 86.7232 50.4429 86.7155V86.2399C50.4429 82.1554 56.1624 80.8394 60.758 79.7819C61.3449 79.6469 61.8991 79.5194 62.427 79.389C63.3354 79.1639 63.9699 78.4185 63.9699 77.5762V73.8362C65.8531 74.9701 67.7585 75.6265 69.3421 75.6265C70.9259 75.6265 72.8315 74.97 74.7149 73.8359V77.5762C74.7149 78.4182 75.3487 79.1636 76.2576 79.3893C76.7845 79.5192 77.3388 79.6467 77.9254 79.7816C82.5217 80.8391 88.242 82.155 88.242 86.2398V86.7155H88.2421Z" fill="#E55670" stroke="white" stroke-width="0.342857"/>
<path d="M72.8016 67.1427C73.2401 66.9346 73.4268 66.4103 73.2186 65.9718C73.0103 65.5333 72.486 65.3466 72.0477 65.5548C70.2272 66.4193 68.4569 66.4193 66.6364 65.5548C66.1978 65.3465 65.6739 65.5333 65.4655 65.9718C65.2574 66.4103 65.4439 66.9345 65.8826 67.1427C67.0303 67.6878 68.1862 67.9602 69.3422 67.9602C70.4981 67.9602 71.6538 67.6878 72.8016 67.1427Z" fill="#E55670" stroke="white" stroke-width="0.342857"/>
<path d="M35.3122 63.4562C37.1754 64.0727 37.8924 64.7896 38.509 66.6528C38.7175 67.2829 39.2797 67.6902 39.9414 67.6902C40.6031 67.6902 41.1653 67.2829 41.3739 66.6528C41.9904 64.7896 42.7074 64.0727 44.5706 63.4562C45.2008 63.2477 45.608 62.6854 45.608 62.0238C45.608 61.3621 45.2008 60.7999 44.5706 60.5914C42.7074 59.9749 41.9904 59.2578 41.3739 57.3946C41.1654 56.7645 40.6031 56.3574 39.9414 56.3574C39.2797 56.3574 38.7176 56.7645 38.509 57.3946C37.8924 59.2578 37.1754 59.9748 35.3122 60.5913C34.6821 60.7998 34.2749 61.362 34.2749 62.0237C34.2749 62.6853 34.6821 63.2477 35.3122 63.4562ZM39.9414 58.5975C40.641 60.3458 41.6194 61.3241 43.3677 62.0238C41.6194 62.7234 40.641 63.7018 39.9414 65.4501C39.2418 63.7018 38.2634 62.7234 36.5152 62.0238C38.2634 61.3242 39.2418 60.3458 39.9414 58.5975Z" fill="#E55670" stroke="white" stroke-width="0.342857"/>
<path d="M39.9709 48.7118C41.8039 49.2548 42.35 49.801 42.893 51.6339C43.0539 52.1772 43.5421 52.5423 44.1078 52.5423C44.6733 52.5423 45.1615 52.1773 45.3224 51.6339C45.8654 49.8011 46.4116 49.255 48.2445 48.7118C48.7878 48.5508 49.1529 48.0626 49.1528 47.4971C49.1528 46.9314 48.7878 46.4433 48.2445 46.2824C46.4114 45.7394 45.8654 45.1932 45.3224 43.3602C45.1614 42.8169 44.6733 42.4519 44.1078 42.4519C43.5421 42.4519 43.054 42.8169 42.893 43.3602C42.35 45.1932 41.8039 45.7394 39.9709 46.2823C39.4277 46.4432 39.0625 46.9314 39.0625 47.4969C39.0625 48.0626 39.4274 48.5508 39.9709 48.7118ZM44.1077 45.1417C44.6295 46.2701 45.3347 46.9752 46.4631 47.4971C45.3347 48.0189 44.6295 48.724 44.1077 49.8524C43.5858 48.724 42.8807 48.0189 41.7523 47.4971C42.8807 46.9752 43.5858 46.2701 44.1077 45.1417Z" fill="#E55670" stroke="white" stroke-width="0.342857"/>
</g>
<defs>
<clipPath id="clip0_153_648">
<rect width="60" height="60" fill="white" transform="translate(30 30.5288)"/>
</clipPath>
</defs>
</svg>
