<svg width="120" height="121" viewBox="0 0 120 121" fill="none" xmlns="http://www.w3.org/2000/svg">
<rect y="0.528809" width="120" height="120" rx="60" fill="#FDF3F5"/>
<g clip-path="url(#clip0_153_626)">
<path d="M85.5366 42.5653C85.701 42.783 85.8617 43.0096 86.0139 43.2389C86.1832 43.4937 86.4623 43.6318 86.7469 43.6318C86.9139 43.6318 87.0828 43.5843 87.2323 43.4849C87.6367 43.2165 87.7469 42.671 87.4784 42.2667C87.3065 42.0078 87.125 41.7516 86.939 41.5057C86.6465 41.1185 86.0955 41.0417 85.708 41.3343C85.3207 41.6268 85.244 42.178 85.5366 42.5653Z" fill="#E55670" stroke="white" stroke-width="0.342857"/>
<path d="M82.8537 39.903C83.2332 40.1847 83.6013 40.4898 83.9477 40.8099C84.1167 40.9661 84.3307 41.0432 84.544 41.0432C84.7806 41.0432 85.0165 40.9482 85.1898 40.7608C85.5192 40.4043 85.4972 39.8482 85.1407 39.5187C84.7482 39.156 84.3313 38.8104 83.9013 38.4913C83.5115 38.202 82.9611 38.2835 82.6718 38.6733C82.3824 39.0631 82.4639 39.6137 82.8537 39.903Z" fill="#E55670" stroke="white" stroke-width="0.342857"/>
<path d="M80.0835 38.3247C80.3352 38.4305 80.5874 38.5458 80.833 38.6673C80.9583 38.7292 81.0912 38.7586 81.2221 38.7586C81.5459 38.7586 81.8572 38.5791 82.0106 38.2692C82.2258 37.8341 82.0475 37.3069 81.6127 37.0916C81.3348 36.9542 81.0494 36.8238 80.7646 36.7041C80.3171 36.5159 79.8019 36.7262 79.6139 37.1739C79.4257 37.6214 79.6358 38.1366 80.0835 38.3247Z" fill="#E55670" stroke="white" stroke-width="0.342857"/>
<path d="M52.2044 59.9757C52.2821 59.4966 51.9567 59.0452 51.4776 58.9675C50.9969 58.89 50.547 59.2152 50.4693 59.6943C50.2478 61.0595 49.0814 62.0504 47.6958 62.0504C46.3102 62.0504 45.1438 61.0595 44.9223 59.6943C44.8446 59.2153 44.3944 58.8908 43.914 58.9675C43.4349 59.0452 43.1096 59.4967 43.1872 59.9757C43.5475 62.1964 45.4437 63.8082 47.6959 63.8082C49.9481 63.8082 51.844 62.1966 52.2044 59.9757Z" fill="#E55670" stroke="white" stroke-width="0.342857"/>
<path d="M67.1426 58.9675C66.6618 58.89 66.212 59.2152 66.1343 59.6943C65.9128 61.0595 64.7465 62.0504 63.3608 62.0504C61.9752 62.0504 60.8088 61.0595 60.5874 59.6943C60.5096 59.2153 60.0597 58.8908 59.5791 58.9675C59.0999 59.0452 58.7746 59.4967 58.8523 59.9757C59.2125 62.1964 61.1087 63.8082 63.361 63.8082C65.6132 63.8082 67.5093 62.1964 67.8696 59.9757C67.9471 59.4967 67.6218 59.0452 67.1426 58.9675Z" fill="#E55670" stroke="white" stroke-width="0.342857"/>
<path d="M58.2803 73.7005C58.0588 75.0659 56.8925 76.0568 55.5068 76.0568C54.1212 76.0568 52.9548 75.0659 52.7334 73.7005C52.6557 73.2214 52.2061 72.8966 51.7251 72.9737C51.2459 73.0514 50.9206 73.5029 50.9983 73.982C51.3585 76.2027 53.2547 77.8146 55.507 77.8146C57.7592 77.8146 59.6553 76.2027 60.0156 73.982C60.0933 73.5028 59.768 73.0514 59.2888 72.9737C58.8081 72.8957 58.358 73.2214 58.2803 73.7005Z" fill="#E55670" stroke="white" stroke-width="0.342857"/>
<path d="M52.1313 67.4865C52.178 67.7394 52.3334 67.9592 52.5561 68.0879L55.0675 69.5377C55.206 69.6177 55.357 69.6556 55.5061 69.6556C55.8099 69.6556 56.1053 69.498 56.2681 69.216C56.5108 68.7957 56.3667 68.2582 55.9464 68.0155L54.3273 67.0807L56.1894 64.7861C56.4953 64.4091 56.4377 63.8557 56.0608 63.5498C55.6838 63.2438 55.1302 63.3015 54.8245 63.6785L52.3132 66.7728C52.151 66.9726 52.0846 67.2335 52.1313 67.4865Z" fill="#E55670" stroke="white" stroke-width="0.342857"/>
<path d="M41.9486 66.4153L40.7767 69.1107C40.5832 69.5559 40.7871 70.0736 41.2323 70.2671C41.3465 70.3168 41.4653 70.3402 41.5822 70.3402C41.9216 70.3402 42.2448 70.1425 42.3887 69.8114L43.5606 67.1161C43.7541 66.6709 43.5502 66.1532 43.105 65.9597C42.6597 65.7659 42.1418 65.97 41.9486 66.4153Z" fill="#E55670" stroke="white" stroke-width="0.342857"/>
<path d="M45.4642 66.4153L44.2923 69.1107C44.0988 69.5559 44.3027 70.0736 44.7479 70.2671C44.8621 70.3168 44.9809 70.3402 45.0979 70.3402C45.4372 70.3402 45.7604 70.1425 45.9044 69.8114L47.0762 67.1161C47.2697 66.6709 47.0658 66.1532 46.6206 65.9597C46.1753 65.7659 45.6576 65.97 45.4642 66.4153Z" fill="#E55670" stroke="white" stroke-width="0.342857"/>
<path d="M48.9803 66.4153L47.8084 69.1107C47.615 69.5559 47.8189 70.0736 48.2641 70.2671C48.3782 70.3168 48.497 70.3402 48.614 70.3402C48.9534 70.3402 49.2766 70.1425 49.4205 69.8114L50.5923 67.1161C50.7858 66.6709 50.5819 66.1532 50.1367 65.9597C49.6915 65.7659 49.1737 65.97 48.9803 66.4153Z" fill="#E55670" stroke="white" stroke-width="0.342857"/>
<path d="M61.6366 66.4153L60.4647 69.1107C60.2712 69.5559 60.4751 70.0736 60.9203 70.2671C61.0344 70.3168 61.1533 70.3402 61.2702 70.3402C61.6096 70.3402 61.9328 70.1425 62.0767 69.8114L63.2486 67.1161C63.4421 66.6709 63.2382 66.1532 62.793 65.9597C62.3476 65.7659 61.8299 65.97 61.6366 66.4153Z" fill="#E55670" stroke="white" stroke-width="0.342857"/>
<path d="M66.3086 65.9597C65.8633 65.7659 65.3455 65.97 65.1522 66.4153L63.9803 69.1107C63.7868 69.5559 63.9907 70.0736 64.4359 70.2671C64.5501 70.3168 64.6689 70.3402 64.7859 70.3402C65.1252 70.3402 65.4484 70.1425 65.5923 69.8114L66.7642 67.1161C66.9577 66.6709 66.7538 66.1532 66.3086 65.9597Z" fill="#E55670" stroke="white" stroke-width="0.342857"/>
<path d="M67.9511 70.2671C68.0653 70.3168 68.1841 70.3402 68.301 70.3402C68.6404 70.3402 68.9636 70.1425 69.1075 69.8114L70.2794 67.1161C70.4729 66.6709 70.269 66.1532 69.8238 65.9597C69.3783 65.7659 68.8607 65.97 68.6674 66.4153L67.4955 69.1107C67.3019 69.5557 67.5059 70.0735 67.9511 70.2671Z" fill="#E55670" stroke="white" stroke-width="0.342857"/>
<path d="M35.7648 76.7941H34.2008V75.2301C34.2008 74.7446 33.8074 74.3512 33.3219 74.3512C32.8364 74.3512 32.443 74.7446 32.443 75.2301V76.7941H30.8789C30.3934 76.7941 30 77.1875 30 77.673C30 78.1585 30.3934 78.5519 30.8789 78.5519H32.443V80.116C32.443 80.6015 32.8364 80.9949 33.3219 80.9949C33.8074 80.9949 34.2008 80.6015 34.2008 80.116V78.5519H35.7649C36.2504 78.5519 36.6438 78.1585 36.6438 77.673C36.6438 77.1875 36.2503 76.7941 35.7648 76.7941Z" fill="#E55670" stroke="white" stroke-width="0.342857"/>
<path d="M46.4063 38.3566H47.9704V39.9207C47.9704 40.4062 48.3638 40.7996 48.8493 40.7996C49.3348 40.7996 49.7282 40.4062 49.7282 39.9207V38.3566H51.2923C51.7778 38.3566 52.1712 37.9632 52.1712 37.4777C52.1712 36.9922 51.7778 36.5988 51.2923 36.5988H49.7282V35.0348C49.7282 34.5493 49.3348 34.1559 48.8493 34.1559C48.3638 34.1559 47.9704 34.5493 47.9704 35.0348V36.5988H46.4063C45.9207 36.5988 45.5273 36.9922 45.5273 37.4777C45.5273 37.9632 45.9207 38.3566 46.4063 38.3566Z" fill="#E55670" stroke="white" stroke-width="0.342857"/>
<path d="M75.0742 44.7358C74.5887 44.7358 74.1953 45.1292 74.1953 45.6147V50.6312C74.1953 51.1167 74.5887 51.5101 75.0742 51.5101H79.0111C79.4966 51.5101 79.89 51.1167 79.89 50.6312C79.89 50.1457 79.4966 49.7523 79.0111 49.7523H75.9531V45.6147C75.9531 45.1292 75.5596 44.7358 75.0742 44.7358Z" fill="#E55670" stroke="white" stroke-width="0.342857"/>
<path d="M88.8841 44.9217C88.7006 44.4724 88.1879 44.2567 87.7382 44.4403C87.2888 44.6237 87.0733 45.1367 87.2568 45.5861C88.2493 48.0172 88.4979 50.6688 87.9755 53.2544C87.3077 56.561 85.4329 59.4663 82.6967 61.4353C80.1869 63.2414 77.1635 64.112 74.1082 63.9252V60.2881C74.426 60.3197 74.748 60.3364 75.074 60.3364C80.4255 60.3364 84.7791 55.9828 84.7791 50.6313C84.7791 45.2798 80.4255 40.9262 75.074 40.9262C74.5071 40.9262 73.929 40.9782 73.3556 41.0808C72.8778 41.1662 72.5598 41.623 72.6452 42.1008C72.7306 42.5785 73.187 42.8965 73.6652 42.8111C74.1365 42.7268 74.6105 42.684 75.0739 42.684C79.4561 42.684 83.0212 46.2492 83.0212 50.6313C83.0212 55.0134 79.456 58.5786 75.0739 58.5786C70.6918 58.5786 67.1266 55.0134 67.1266 50.6313C67.1266 48.1221 68.276 45.812 70.28 44.2935C70.667 44.0004 70.7429 43.4491 70.4497 43.0622C70.1566 42.6751 69.6051 42.5993 69.2184 42.8925C68.2597 43.6189 67.462 44.4943 66.8454 45.4742C65.8395 44.6966 64.768 44.0265 63.6418 43.4755C64.9754 41.3786 66.9052 39.6594 69.1599 38.5806C71.1765 37.6155 73.3555 37.1826 75.5544 37.2949L75.0843 37.6694C74.7048 37.9719 74.6422 38.5249 74.9448 38.9045C75.1182 39.1222 75.3743 39.2356 75.6327 39.2356C75.8247 39.2356 76.018 39.1731 76.1798 39.044L78.2681 37.3801C78.6477 37.0776 78.7102 36.5246 78.4077 36.1451L76.7437 34.0568C76.4412 33.6772 75.8882 33.6146 75.5087 33.9172C75.1291 34.2197 75.0665 34.7727 75.3691 35.1522L75.6792 35.5415C73.1769 35.4074 70.6965 35.8967 68.4013 36.995C65.7651 38.2564 63.5214 40.2928 62.0084 42.7753C60.6214 42.2558 59.1714 41.9007 57.6806 41.7267C57.2002 41.6692 56.762 42.0156 56.7058 42.4978C56.6496 42.9799 56.9948 43.4164 57.4769 43.4726C60.6168 43.839 63.5629 45.0799 66.0371 47.0719C65.5996 48.1862 65.3688 49.3888 65.3688 50.6314C65.3688 55.0361 68.3193 58.7625 72.3471 59.944C72.3482 60.0233 72.3502 60.103 72.3502 60.1815V68.7526C72.3502 71.8647 71.5007 74.8606 69.8816 77.4961L68.8905 75.684C68.6693 75.2794 68.2453 75.0277 67.784 75.0276C67.7839 75.0276 67.7839 75.0276 67.7838 75.0276C67.3225 75.0276 66.8986 75.2791 66.6772 75.6839L65.1427 78.4895L62.337 80.024C61.9323 80.2454 61.6807 80.6694 61.6807 81.1308C61.6807 81.5921 61.9321 82.0161 62.3369 82.2372L64.1076 83.2058C61.512 84.7595 58.573 85.5746 55.5281 85.5746C51.0542 85.5746 46.8352 83.8194 43.6482 80.6324C40.4612 77.4453 38.7061 73.226 38.7061 68.7522V66.5583C38.7061 66.0727 38.3127 65.6793 37.8271 65.6793C37.3416 65.6793 36.9482 66.0727 36.9482 66.5583V68.7522C36.9482 73.6956 38.8863 78.356 42.4053 81.875C45.9243 85.394 50.5849 87.3321 55.5281 87.3321C59.0844 87.3321 62.5093 86.3256 65.4937 84.4135L66.6771 86.5773C66.8986 86.9819 67.3225 87.2334 67.7837 87.2333H67.7839C68.2453 87.2333 68.6693 86.9818 68.8903 86.5772L70.4248 83.7715L73.2305 82.2369C73.6352 82.0156 73.8867 81.5915 73.8867 81.1304C73.8867 80.669 73.6352 80.2449 73.2305 80.0238L71.0983 78.8576C73.0701 75.8406 74.108 72.3677 74.108 68.7521V65.6854C74.3795 65.7001 74.6507 65.7084 74.9216 65.7084C78.0638 65.7084 81.1353 64.724 83.7232 62.8618C86.8204 60.633 88.9423 57.3446 89.6983 53.6022C90.2896 50.6762 90.0079 47.6745 88.8841 44.9217ZM71.5907 81.1305L69.4546 82.2988C69.242 82.4148 69.068 82.5887 68.9525 82.8006L67.7837 84.9375L66.6148 82.8003C66.4987 82.588 66.3249 82.4145 66.1135 82.2992L63.9768 81.1305L66.1138 79.9616C66.3254 79.8458 66.4986 79.6727 66.615 79.4604L67.7837 77.3234L68.9524 79.4601C69.0682 79.6721 69.2416 79.8456 69.4538 79.9617L71.5907 81.1305Z" fill="#E55670" stroke="white" stroke-width="0.342857"/>
<path d="M37.827 63.3355C38.3125 63.3355 38.7059 62.9421 38.7059 62.4566V60.1811C38.7059 56.8813 39.6562 53.725 41.4635 50.9841L42.6536 53.1604C42.8751 53.565 43.2991 53.8165 43.7602 53.8165H43.7605C44.2218 53.8164 44.6458 53.5649 44.8668 53.1602L46.4014 50.3545L49.2073 48.82C49.612 48.5985 49.8632 48.1744 49.8632 47.7132C49.8631 47.252 49.6118 46.828 49.2071 46.6069L47.2667 45.5456C49.2113 44.4427 51.3689 43.7305 53.5791 43.4726C54.0613 43.4163 54.4066 42.9799 54.3502 42.4978C54.2941 42.0156 53.8555 41.6698 53.3755 41.7267C50.7658 42.0314 48.2231 42.9077 45.9636 44.2718L44.867 42.2666C44.6457 41.8621 44.2217 41.6106 43.7606 41.6105C43.7605 41.6105 43.7605 41.6105 43.7604 41.6105C43.2992 41.6105 42.8751 41.8618 42.6537 42.2666L41.1193 45.0722L38.3137 46.6068C37.9091 46.828 37.6575 47.252 37.6573 47.7132C37.6573 48.1746 37.9087 48.5987 38.3136 48.8201L40.1313 49.8142C38.0461 52.8891 36.9482 56.4519 36.9482 60.1811V62.4566C36.9481 62.9421 37.3415 63.3355 37.827 63.3355ZM39.9533 47.7135L42.0894 46.5451C42.3017 46.4293 42.4754 46.2558 42.5916 46.0433L43.7604 43.9064L44.9287 46.0426C45.0447 46.2553 45.2186 46.4292 45.4305 46.5448L47.5674 47.7136L45.4303 48.8824C45.2182 48.9984 45.0448 49.172 44.9292 49.3836L43.7604 51.5206L42.5912 49.3828C42.4753 49.1712 42.302 48.9982 42.0902 48.8823L39.9533 47.7135Z" fill="#E55670" stroke="white" stroke-width="0.342857"/>
</g>
<defs>
<clipPath id="clip0_153_626">
<rect width="60" height="60" fill="white" transform="translate(30 30.5288)"/>
</clipPath>
</defs>
</svg>
