<svg width="16" height="17" viewBox="0 0 16 17" fill="none" xmlns="http://www.w3.org/2000/svg">
<g clip-path="url(#clip0_90_41)">
<path d="M10.5141 10.5284L9.29156 12.0569C7.39827 10.944 5.82045 9.36617 4.70756 7.47288L6.23606 6.25038C6.41504 6.10694 6.54152 5.90831 6.59579 5.68545C6.65006 5.4626 6.62906 5.22805 6.53606 5.01838L5.14306 1.88188C5.04332 1.6568 4.86683 1.47449 4.64509 1.36752C4.42336 1.26054 4.17082 1.23586 3.93256 1.29788L1.28256 1.98588C1.03479 2.05004 0.81922 2.20297 0.676803 2.41563C0.534386 2.62829 0.475048 2.88585 0.510063 3.13938C0.975434 6.45309 2.50695 9.52522 4.87309 11.8914C7.23923 14.2575 10.3114 15.789 13.6251 16.2544C13.8783 16.2893 14.1356 16.2301 14.3481 16.088C14.5606 15.9459 14.7136 15.7308 14.7781 15.4834L15.4661 12.8334C15.5278 12.5953 15.503 12.3431 15.3961 12.1216C15.2893 11.9001 15.1073 11.7238 14.8826 11.6239L11.7461 10.2294C11.5365 10.1362 11.302 10.115 11.0791 10.1691C10.8563 10.2232 10.6576 10.3495 10.5141 10.5284Z" fill="#798993"/>
</g>
<defs>
<clipPath id="clip0_90_41">
<rect width="16" height="16" fill="white" transform="translate(0 0.764404)"/>
</clipPath>
</defs>
</svg>
