<svg width="16" height="17" viewBox="0 0 16 17" fill="none" xmlns="http://www.w3.org/2000/svg">
<g clip-path="url(#clip0_90_32)">
<path d="M8 0.764404C5.05 0.764404 2 3.0144 2 6.7644C2 10.3144 7.4 15.8644 7.65 16.1144C7.75 16.2144 7.85 16.2644 8 16.2644C8.15 16.2644 8.25 16.2144 8.35 16.1144C8.6 15.8644 14 10.3644 14 6.7644C14 3.0144 10.95 0.764404 8 0.764404ZM8 8.7644C6.9 8.7644 6 7.8644 6 6.7644C6 5.6644 6.9 4.7644 8 4.7644C9.1 4.7644 10 5.6644 10 6.7644C10 7.8644 9.1 8.7644 8 8.7644Z" fill="#798993"/>
</g>
<defs>
<clipPath id="clip0_90_32">
<rect width="16" height="16" fill="white" transform="translate(0 0.764404)"/>
</clipPath>
</defs>
</svg>
