<svg width="120" height="121" viewBox="0 0 120 121" fill="none" xmlns="http://www.w3.org/2000/svg">
<rect y="0.528809" width="120" height="120" rx="60" fill="#FDF3F5"/>
<path d="M83.4375 38.0288H78.75V36.1538C78.75 35.1592 78.3549 34.2054 77.6516 33.5022C76.9484 32.7989 75.9946 32.4038 75 32.4038C74.0054 32.4038 73.0516 32.7989 72.3484 33.5022C71.6451 34.2054 71.25 35.1592 71.25 36.1538V38.0288H63.75V36.1538C63.75 35.1592 63.3549 34.2054 62.6516 33.5022C61.9484 32.7989 60.9946 32.4038 60 32.4038C59.0054 32.4038 58.0516 32.7989 57.3484 33.5022C56.6451 34.2054 56.25 35.1592 56.25 36.1538V38.0288H48.75V36.1538C48.75 35.1592 48.3549 34.2054 47.6516 33.5022C46.9484 32.7989 45.9946 32.4038 45 32.4038C44.0054 32.4038 43.0516 32.7989 42.3483 33.5022C41.6451 34.2054 41.25 35.1592 41.25 36.1538V38.0288H36.5625C35.3193 38.0288 34.127 38.5227 33.2479 39.4017C32.3689 40.2808 31.875 41.4731 31.875 42.7163V80.2163C31.875 81.4595 32.3689 82.6518 33.2479 83.5309C34.127 84.41 35.3193 84.9038 36.5625 84.9038H62.8125C63.0611 84.9038 63.2996 84.805 63.4754 84.6292C63.6512 84.4534 63.75 84.215 63.75 83.9663C63.75 83.7177 63.6512 83.4792 63.4754 83.3034C63.2996 83.1276 63.0611 83.0288 62.8125 83.0288H36.5625C35.8173 83.0266 35.1032 82.7296 34.5762 82.2026C34.0493 81.6756 33.7522 80.9615 33.75 80.2163V51.1538H86.25V67.0913C86.25 67.34 86.3488 67.5784 86.5246 67.7542C86.7004 67.93 86.9389 68.0288 87.1875 68.0288C87.4361 68.0288 87.6746 67.93 87.8504 67.7542C88.0262 67.5784 88.125 67.34 88.125 67.0913V42.7163C88.125 41.4731 87.6311 40.2808 86.7521 39.4017C85.873 38.5227 84.6807 38.0288 83.4375 38.0288ZM73.125 36.1538C73.125 35.6565 73.3225 35.1796 73.6742 34.828C74.0258 34.4764 74.5027 34.2788 75 34.2788C75.4973 34.2788 75.9742 34.4764 76.3258 34.828C76.6775 35.1796 76.875 35.6565 76.875 36.1538V41.7788C76.875 42.2761 76.6775 42.753 76.3258 43.1046C75.9742 43.4563 75.4973 43.6538 75 43.6538C74.5027 43.6538 74.0258 43.4563 73.6742 43.1046C73.3225 42.753 73.125 42.2761 73.125 41.7788V36.1538ZM58.125 36.1538C58.125 35.6565 58.3225 35.1796 58.6742 34.828C59.0258 34.4764 59.5027 34.2788 60 34.2788C60.4973 34.2788 60.9742 34.4764 61.3258 34.828C61.6775 35.1796 61.875 35.6565 61.875 36.1538V41.7788C61.875 42.2761 61.6775 42.753 61.3258 43.1046C60.9742 43.4563 60.4973 43.6538 60 43.6538C59.5027 43.6538 59.0258 43.4563 58.6742 43.1046C58.3225 42.753 58.125 42.2761 58.125 41.7788V36.1538ZM43.125 36.1538C43.125 35.6565 43.3225 35.1796 43.6742 34.828C44.0258 34.4764 44.5027 34.2788 45 34.2788C45.4973 34.2788 45.9742 34.4764 46.3258 34.828C46.6775 35.1796 46.875 35.6565 46.875 36.1538V41.7788C46.875 42.2761 46.6775 42.753 46.3258 43.1046C45.9742 43.4563 45.4973 43.6538 45 43.6538C44.5027 43.6538 44.0258 43.4563 43.6742 43.1046C43.3225 42.753 43.125 42.2761 43.125 41.7788V36.1538ZM86.25 49.2788H33.75V42.7163C33.7522 41.9711 34.0493 41.257 34.5762 40.73C35.1032 40.2031 35.8173 39.906 36.5625 39.9038H41.25V41.7788C41.25 42.7734 41.6451 43.7272 42.3483 44.4305C43.0516 45.1337 44.0054 45.5288 45 45.5288C45.9946 45.5288 46.9484 45.1337 47.6516 44.4305C48.3549 43.7272 48.75 42.7734 48.75 41.7788V39.9038H56.25V41.7788C56.25 42.7734 56.6451 43.7272 57.3484 44.4305C58.0516 45.1337 59.0054 45.5288 60 45.5288C60.9946 45.5288 61.9484 45.1337 62.6516 44.4305C63.3549 43.7272 63.75 42.7734 63.75 41.7788V39.9038H71.25V41.7788C71.25 42.7734 71.6451 43.7272 72.3484 44.4305C73.0516 45.1337 74.0054 45.5288 75 45.5288C75.9946 45.5288 76.9484 45.1337 77.6516 44.4305C78.3549 43.7272 78.75 42.7734 78.75 41.7788V39.9038H83.4375C84.1827 39.906 84.8968 40.2031 85.4238 40.73C85.9507 41.257 86.2478 41.9711 86.25 42.7163V49.2788Z" fill="#E55670" stroke="white" stroke-width="0.428571"/>
<path d="M58.125 57.7163C58.125 57.219 57.9275 56.7421 57.5758 56.3905C57.2242 56.0389 56.7473 55.8413 56.25 55.8413H52.5C52.0027 55.8413 51.5258 56.0389 51.1742 56.3905C50.8225 56.7421 50.625 57.219 50.625 57.7163V60.5288C50.625 61.0261 50.8225 61.503 51.1742 61.8546C51.5258 62.2063 52.0027 62.4038 52.5 62.4038H56.25C56.7473 62.4038 57.2242 62.2063 57.5758 61.8546C57.9275 61.503 58.125 61.0261 58.125 60.5288V57.7163ZM52.5 60.5288V57.7163H56.25V60.5288H52.5Z" fill="#E55670" stroke="white" stroke-width="0.428571"/>
<path d="M46.875 57.7163C46.875 57.219 46.6775 56.7421 46.3258 56.3905C45.9742 56.0389 45.4973 55.8413 45 55.8413H41.25C40.7527 55.8413 40.2758 56.0389 39.9242 56.3905C39.5725 56.7421 39.375 57.219 39.375 57.7163V60.5288C39.375 61.0261 39.5725 61.503 39.9242 61.8546C40.2758 62.2063 40.7527 62.4038 41.25 62.4038H45C45.4973 62.4038 45.9742 62.2063 46.3258 61.8546C46.6775 61.503 46.875 61.0261 46.875 60.5288V57.7163ZM41.25 60.5288V57.7163H45V60.5288H41.25Z" fill="#E55670" stroke="white" stroke-width="0.428571"/>
<path d="M78.75 62.4038C79.2473 62.4038 79.7242 62.2063 80.0758 61.8546C80.4275 61.503 80.625 61.0261 80.625 60.5288V57.7163C80.625 57.219 80.4275 56.7421 80.0758 56.3905C79.7242 56.0389 79.2473 55.8413 78.75 55.8413H75C74.5027 55.8413 74.0258 56.0389 73.6742 56.3905C73.3225 56.7421 73.125 57.219 73.125 57.7163V60.5288C73.125 61.0261 73.3225 61.503 73.6742 61.8546C74.0258 62.2063 74.5027 62.4038 75 62.4038H78.75ZM75 57.7163H78.75V60.5288H75V57.7163Z" fill="#E55670" stroke="white" stroke-width="0.428571"/>
<path d="M58.125 66.1538C58.125 65.6565 57.9275 65.1796 57.5758 64.828C57.2242 64.4764 56.7473 64.2788 56.25 64.2788H52.5C52.0027 64.2788 51.5258 64.4764 51.1742 64.828C50.8225 65.1796 50.625 65.6565 50.625 66.1538V68.9663C50.625 69.4636 50.8225 69.9405 51.1742 70.2921C51.5258 70.6438 52.0027 70.8413 52.5 70.8413H56.25C56.7473 70.8413 57.2242 70.6438 57.5758 70.2921C57.9275 69.9405 58.125 69.4636 58.125 68.9663V66.1538ZM52.5 68.9663V66.1538H56.25V68.9663H52.5Z" fill="#E55670" stroke="white" stroke-width="0.428571"/>
<path d="M46.875 66.1538C46.875 65.6565 46.6775 65.1796 46.3258 64.828C45.9742 64.4764 45.4973 64.2788 45 64.2788H41.25C40.7527 64.2788 40.2758 64.4764 39.9242 64.828C39.5725 65.1796 39.375 65.6565 39.375 66.1538V68.9663C39.375 69.4636 39.5725 69.9405 39.9242 70.2921C40.2758 70.6438 40.7527 70.8413 41.25 70.8413H45C45.4973 70.8413 45.9742 70.6438 46.3258 70.2921C46.6775 69.9405 46.875 69.4636 46.875 68.9663V66.1538ZM41.25 68.9663V66.1538H45V68.9663H41.25Z" fill="#E55670" stroke="white" stroke-width="0.428571"/>
<path d="M56.25 72.7163H52.5C52.0027 72.7163 51.5258 72.9139 51.1742 73.2655C50.8225 73.6171 50.625 74.094 50.625 74.5913V77.4038C50.625 77.9011 50.8225 78.378 51.1742 78.7296C51.5258 79.0813 52.0027 79.2788 52.5 79.2788H56.25C56.7473 79.2788 57.2242 79.0813 57.5758 78.7296C57.9275 78.378 58.125 77.9011 58.125 77.4038V74.5913C58.125 74.094 57.9275 73.6171 57.5758 73.2655C57.2242 72.9139 56.7473 72.7163 56.25 72.7163ZM52.5 77.4038V74.5913H56.25V77.4038H52.5Z" fill="#E55670" stroke="white" stroke-width="0.428571"/>
<path d="M63.75 62.4038H67.5C67.9973 62.4038 68.4742 62.2063 68.8258 61.8546C69.1775 61.503 69.375 61.0261 69.375 60.5288V57.7163C69.375 57.219 69.1775 56.7421 68.8258 56.3905C68.4742 56.0389 67.9973 55.8413 67.5 55.8413H63.75C63.2527 55.8413 62.7758 56.0389 62.4242 56.3905C62.0725 56.7421 61.875 57.219 61.875 57.7163V60.5288C61.875 61.0261 62.0725 61.503 62.4242 61.8546C62.7758 62.2063 63.2527 62.4038 63.75 62.4038ZM63.75 57.7163H67.5V60.5288H63.75V57.7163Z" fill="#E55670" stroke="white" stroke-width="0.428571"/>
<path d="M61.875 68.9663C61.875 69.4636 62.0725 69.9405 62.4242 70.2921C62.7758 70.6438 63.2527 70.8413 63.75 70.8413C63.9986 70.8413 64.2371 70.7425 64.4129 70.5667C64.5887 70.3909 64.6875 70.1524 64.6875 69.9038C64.6875 69.6552 64.5887 69.4167 64.4129 69.2409C64.2371 69.0651 63.9986 68.9663 63.75 68.9663V66.1538H67.5C67.7486 66.1538 67.9871 66.055 68.1629 65.8792C68.3387 65.7034 68.4375 65.4649 68.4375 65.2163C68.4375 64.9677 68.3387 64.7292 68.1629 64.5534C67.9871 64.3776 67.7486 64.2788 67.5 64.2788H63.75C63.2527 64.2788 62.7758 64.4764 62.4242 64.828C62.0725 65.1796 61.875 65.6565 61.875 66.1538V68.9663Z" fill="#E55670" stroke="white" stroke-width="0.428571"/>
<path d="M45 72.7163H41.25C40.7527 72.7163 40.2758 72.9139 39.9242 73.2655C39.5725 73.6171 39.375 74.094 39.375 74.5913V77.4038C39.375 77.9011 39.5725 78.378 39.9242 78.7296C40.2758 79.0813 40.7527 79.2788 41.25 79.2788H45C45.4973 79.2788 45.9742 79.0813 46.3258 78.7296C46.6775 78.378 46.875 77.9011 46.875 77.4038V74.5913C46.875 74.094 46.6775 73.6171 46.3258 73.2655C45.9742 72.9139 45.4973 72.7163 45 72.7163ZM41.25 77.4038V74.5913H45V77.4038H41.25Z" fill="#E55670" stroke="white" stroke-width="0.428571"/>
<path d="M75.9375 64.2788C73.527 64.2788 71.1707 64.9936 69.1665 66.3328C67.1623 67.672 65.6002 69.5754 64.6777 71.8024C63.7553 74.0293 63.5139 76.4798 63.9842 78.844C64.4544 81.2081 65.6152 83.3797 67.3196 85.0842C69.0241 86.7886 71.1957 87.9494 73.5598 88.4196C75.924 88.8899 78.3745 88.6485 80.6015 87.7261C82.8284 86.8036 84.7319 85.2415 86.071 83.2373C87.4102 81.2331 88.125 78.8768 88.125 76.4663C88.1213 73.2351 86.8361 70.1373 84.5513 67.8526C82.2665 65.5678 79.1687 64.2825 75.9375 64.2788ZM75.9375 86.7788C73.8979 86.7788 71.9041 86.174 70.2082 85.0408C68.5123 83.9077 67.1905 82.2971 66.41 80.4127C65.6295 78.5284 65.4252 76.4549 65.8232 74.4544C66.2211 72.454 67.2032 70.6165 68.6455 69.1743C70.0877 67.732 71.9252 66.7499 73.9256 66.352C75.9261 65.954 77.9996 66.1583 79.8839 66.9388C81.7683 67.7193 83.3789 69.0411 84.512 70.737C85.6452 72.4329 86.25 74.4267 86.25 76.4663C86.2468 79.2004 85.1593 81.8215 83.226 83.7548C81.2927 85.6881 78.6716 86.7756 75.9375 86.7788Z" fill="#E55670" stroke="white" stroke-width="0.428571"/>
<path d="M81.3544 72.5362L74.0625 79.8281L70.7485 76.5131C70.5716 76.3423 70.3348 76.2478 70.089 76.25C69.8432 76.2521 69.6081 76.3507 69.4343 76.5245C69.2604 76.6984 69.1618 76.9335 69.1597 77.1793C69.1576 77.4251 69.2521 77.6619 69.4228 77.8387L73.3997 81.8166C73.5755 81.9923 73.8139 82.091 74.0625 82.091C74.3111 82.091 74.5495 81.9923 74.7253 81.8166L82.68 73.8619C82.8508 73.6851 82.9453 73.4482 82.9432 73.2024C82.941 72.9566 82.8424 72.7215 82.6686 72.5477C82.4948 72.3738 82.2596 72.2752 82.0138 72.2731C81.768 72.271 81.5312 72.3655 81.3544 72.5362Z" fill="#E55670" stroke="white" stroke-width="0.428571"/>
</svg>
