<svg width="120" height="121" viewBox="0 0 120 121" fill="none" xmlns="http://www.w3.org/2000/svg">
<rect y="0.528809" width="120" height="120" rx="60" fill="#FDF3F5"/>
<g clip-path="url(#clip0_153_655)">
<path d="M40.3398 71.9918L37.8658 66.2188C37.0959 64.4753 35.0583 63.6859 33.3148 64.4558C31.5712 65.2257 30.7819 67.2633 31.5518 69.0068C36.1088 79.0318 36.3308 80.1178 38.3518 82.1368L46.4518 90.2368C46.6393 90.4244 46.8936 90.5298 47.1588 90.5298H57.9998C58.5521 90.5298 58.9998 90.0821 58.9998 89.5298C59.1343 87.5022 59.0232 85.4658 58.6688 83.4648C59.5541 83.5488 60.4454 83.5488 61.3308 83.4648C60.8998 85.2948 60.9998 86.4188 60.9998 89.5288C60.9998 90.0811 61.4475 90.5288 61.9998 90.5288H72.8448C73.11 90.5288 73.3643 90.4234 73.5518 90.2358L81.6518 82.1358C83.6698 80.1168 83.8308 79.1648 88.4518 69.0058C88.9498 67.8779 88.8083 66.57 88.0805 65.5748C87.3527 64.5795 86.1493 64.0481 84.9235 64.1808C83.6977 64.3134 82.6358 65.0899 82.1378 66.2178L79.6598 71.9918C78.499 71.1887 77.0562 70.905 75.6778 71.2088C76.1405 70.0739 76.5332 68.9118 76.8538 67.7288C78.8388 67.3288 83.6478 65.5858 83.6478 58.0288C83.6478 55.4678 83.2018 52.3118 80.6548 51.9638C84.2549 46.3918 85.6936 39.6958 84.6998 33.1368L84.2998 31.3118C84.1977 30.8525 83.7892 30.5265 83.3188 30.5288H36.6808C36.2122 30.5289 35.8065 30.8544 35.7048 31.3118L35.2848 33.2118C34.3088 39.7519 35.7535 46.4234 39.3478 51.9738C36.8258 52.3498 36.3888 55.4968 36.3888 58.0328C36.3888 65.5928 41.2018 67.3328 43.1888 67.7328C43.5111 68.9191 43.9055 70.0846 44.3698 71.2228C42.9781 70.8997 41.5147 71.1789 40.3398 71.9918ZM56.9998 88.5288H47.5688L39.7688 80.7228C38.1358 79.0938 38.1378 78.6618 33.3728 68.1788C33.1634 67.7046 33.223 67.1546 33.529 66.7362C33.8351 66.3177 34.3411 66.0943 34.8565 66.1502C35.3719 66.206 35.8184 66.5326 36.0278 67.0068C40.0788 76.4608 38.5038 74.1578 46.4478 82.1068C46.6988 82.3668 47.0706 82.471 47.4203 82.3795C47.7699 82.288 48.043 82.015 48.1345 81.6653C48.226 81.3157 48.1217 80.9439 47.8618 80.6928C42.3838 75.2158 42.1248 75.0638 41.2898 73.7848C42.4096 72.8551 44.0321 72.8526 45.1548 73.7788C47.2376 75.6887 49.6438 77.2125 52.2608 78.2788C54.5998 79.0558 56.9998 82.0868 56.9998 86.3288V88.5288ZM57.9568 81.3538C57.0278 79.0682 55.1955 77.2681 52.8938 76.3798C50.9287 75.5849 49.1051 74.4772 47.4938 73.0998C44.0578 67.0118 43.6158 59.6748 43.6108 52.6838C45.7298 48.9498 51.2878 40.3368 59.9998 35.0818C68.7308 40.3758 74.2998 49.0018 76.4258 52.7458C76.4098 59.8458 75.9858 66.8458 72.5938 73.0328C70.9585 74.4388 69.1052 75.5692 67.1068 76.3798C64.8031 77.2699 62.9697 79.0725 62.0408 81.3608C60.6871 81.5672 59.3098 81.5648 57.9568 81.3538ZM78.7098 73.7798C77.8788 75.0538 77.6378 75.1878 72.1378 80.6878C71.7588 81.0802 71.7642 81.7039 72.15 82.0896C72.5357 82.4754 73.1594 82.4808 73.5518 82.1018C81.4198 74.2348 79.9188 76.4658 83.9718 67.0068C84.1811 66.5326 84.6276 66.206 85.143 66.1502C85.6584 66.0943 86.1645 66.3177 86.4705 66.7362C86.7766 67.1546 86.8361 67.7046 86.6268 68.1788C81.9328 78.5058 81.9038 79.0538 80.2368 80.7228L72.4308 88.5288H62.9998V86.3288C62.9656 84.158 63.667 82.0395 64.9898 80.3178C67.3348 77.3858 68.0828 79.4708 74.8448 73.7788C75.9663 72.8512 77.5888 72.8516 78.7098 73.7798ZM81.6478 58.0288C81.6478 63.0638 79.2068 64.8658 77.3918 65.5118C78.0674 61.9513 78.4049 58.3349 78.3998 54.7108C79.3248 54.0538 80.1448 53.7798 80.5998 53.9998C80.8448 54.1178 81.6478 54.7598 81.6478 58.0288ZM82.5188 32.5288C83.8432 39.2126 82.3606 46.147 78.4188 51.7048C78.3238 44.2358 76.3508 39.1188 72.3848 36.0848C71.946 35.7493 71.3183 35.833 70.9828 36.2718C70.6473 36.7106 70.731 37.3383 71.1698 37.6738C74.0608 39.8848 75.7178 43.5028 76.2348 48.6238C72.2248 42.5338 66.0318 36.0468 59.5698 32.5288H82.5188ZM37.4828 32.5288H51.1218C48.8906 34.0067 46.9006 35.8196 45.2218 37.9038C44.8766 38.3352 44.9464 38.9646 45.3778 39.3098C45.8091 39.655 46.4386 39.5852 46.7838 39.1538C49.019 36.3937 51.8347 34.1598 55.0308 32.6108C56.0466 33.0101 57.041 33.462 58.0098 33.9648C49.6158 39.3688 44.2548 47.4418 41.7388 51.9288C37.6735 46.3401 36.1304 39.3061 37.4828 32.5288ZM38.3888 58.0288C38.3888 54.7558 39.1888 54.1138 39.4388 53.9958C39.8848 53.7808 40.7218 54.0588 41.6388 54.7068C41.6337 58.3326 41.9716 61.9507 42.6478 65.5128C40.8328 64.8708 38.3888 63.0698 38.3888 58.0288Z" fill="#E55670" stroke="white" stroke-width="0.514286"/>
<path d="M48.4467 52.2639C49.4894 51.7397 50.6984 51.6541 51.8047 52.0259L55.6837 53.3189C56.0231 53.4318 56.3969 53.355 56.6644 53.1176C56.9319 52.8801 57.0523 52.5179 56.9804 52.1676C56.9085 51.8172 56.6551 51.5318 56.3157 51.4189L52.4367 50.1289C50.8276 49.5884 49.0692 49.7133 47.5527 50.4759C47.2302 50.6339 47.0172 50.9527 46.9947 51.3112C46.9721 51.6696 47.1435 52.0125 47.4437 52.2097C47.7438 52.4069 48.1267 52.4269 48.4467 52.2639Z" fill="#E55670" stroke="white" stroke-width="0.514286"/>
<path d="M63.9997 53.3699C64.2327 53.3699 63.9997 53.4249 68.1997 52.0259C69.3059 51.653 70.5153 51.7387 71.5577 52.2639C71.8777 52.4269 72.2606 52.4058 72.5607 52.2087C72.8609 52.0115 73.0323 51.6685 73.0097 51.3101C72.9872 50.9517 72.7742 50.6329 72.4517 50.4749C70.9349 49.7123 69.1762 49.5874 67.5667 50.1279L63.6887 51.4209C63.2239 51.5753 62.9393 52.0437 63.0165 52.5275C63.0937 53.0112 63.5099 53.3678 63.9997 53.3699Z" fill="#E55670" stroke="white" stroke-width="0.514286"/>
<path d="M55.9445 57.2077C55.7672 56.6858 55.2009 56.4058 54.6785 56.5817C54.6435 56.5927 51.2335 57.7047 48.5995 55.7287C48.2034 55.4335 47.6511 55.4718 47.2995 55.8187C46.9484 56.182 46.4949 56.4297 45.9995 56.5287C45.4472 56.5287 44.9995 56.9765 44.9995 57.5287C44.9995 58.081 45.4472 58.5287 45.9995 58.5287C46.7462 58.4887 47.4637 58.2249 48.0585 57.7717C48.2095 57.8617 48.3585 57.9417 48.5125 58.0187C48.3784 58.2222 48.2038 58.3958 47.9995 58.5287C47.4472 58.5287 46.9995 58.9765 46.9995 59.5287C46.9995 60.7577 48.8465 61.2287 50.4725 58.7097C52.0837 59.0389 53.7517 58.9581 55.3235 58.4747C55.844 58.2953 56.1216 57.729 55.9445 57.2077Z" fill="#E55670" stroke="white" stroke-width="0.514286"/>
<path d="M71.3999 55.7289C68.7789 57.6939 65.3919 56.6058 65.3219 56.5818C64.7992 56.4035 64.2308 56.6826 64.0524 57.2054C63.874 57.7281 64.1532 58.2965 64.6759 58.4748C66.2476 58.959 67.9158 59.0398 69.5269 58.7098C70.0349 59.4988 70.9059 60.5289 71.9999 60.5289C72.5569 60.5317 73.0126 60.0858 73.0219 59.5289C73.0276 59.2656 72.9269 59.0111 72.7427 58.823C72.5585 58.6348 72.3062 58.5288 72.0429 58.5288C71.8213 58.4016 71.6323 58.2246 71.4909 58.0118C71.6409 57.9348 71.7909 57.8569 71.9409 57.7669C72.5352 58.2218 73.2526 58.4873 73.9999 58.5288C74.5522 58.5288 74.9999 58.0811 74.9999 57.5288C74.9999 56.9766 74.5522 56.5288 73.9999 56.5288C73.5073 56.4295 73.0564 56.183 72.7069 55.8218C72.3551 55.47 71.798 55.4304 71.3999 55.7289Z" fill="#E55670" stroke="white" stroke-width="0.514286"/>
<path d="M56.4447 65.3608C58.5962 66.8002 61.4033 66.8002 63.5547 65.3608C63.852 65.1625 64.0209 64.8207 63.9978 64.4642C63.9747 64.1076 63.7631 63.7904 63.4428 63.6322C63.1224 63.4739 62.742 63.4985 62.4447 63.6968C60.9648 64.6859 59.0347 64.6859 57.5547 63.6968C57.0952 63.3903 56.4743 63.5143 56.1677 63.9738C55.8612 64.4333 55.9852 65.0543 56.4447 65.3608Z" fill="#E55670" stroke="white" stroke-width="0.514286"/>
<path d="M65.9995 71.3288C65.9965 70.9938 65.8552 70.6749 65.609 70.4477C65.3628 70.2205 65.0337 70.1051 64.6995 70.1288C63.8705 70.1288 61.4165 68.5288 59.9995 68.5288C58.5635 68.5288 56.1435 70.1288 55.3045 70.1288C54.9696 70.1039 54.6393 70.2188 54.3921 70.4461C54.1448 70.6734 54.0027 70.993 53.9995 71.3288C53.9995 72.7398 56.8245 74.5288 59.9995 74.5288C63.1745 74.5288 65.9995 72.7388 65.9995 71.3288ZM59.9995 70.5288C61.0757 70.844 62.1216 71.255 63.1245 71.7568C61.1682 72.7858 58.8308 72.7858 56.8745 71.7568C57.877 71.254 58.9229 70.843 59.9995 70.5288Z" fill="#E55670" stroke="white" stroke-width="0.514286"/>
<path d="M61 76.5288H59C58.4477 76.5288 58 76.9765 58 77.5288C58 78.0811 58.4477 78.5288 59 78.5288H61C61.5523 78.5288 62 78.0811 62 77.5288C62 76.9765 61.5523 76.5288 61 76.5288Z" fill="#E55670" stroke="white" stroke-width="0.514286"/>
<path d="M42.9995 42.5288C43.5518 42.5288 43.9995 42.0811 43.9995 41.5288C43.9995 40.9765 43.5518 40.5288 42.9995 40.5288C42.4472 40.5288 41.9995 40.9765 41.9995 41.5288C41.9995 42.0811 42.4472 42.5288 42.9995 42.5288Z" fill="#E55670" stroke="white" stroke-width="0.514286"/>
</g>
<defs>
<clipPath id="clip0_153_655">
<rect width="60" height="60" fill="white" transform="translate(30 30.5288)"/>
</clipPath>
</defs>
</svg>
