<svg width="150" height="151" viewBox="0 0 150 151" fill="none" xmlns="http://www.w3.org/2000/svg">
<rect y="0.661133" width="150" height="150" rx="75" fill="#E55670" fill-opacity="0.05"/>
<path d="M108.359 80.185L95.2344 72.5288C95.0671 72.4311 94.8768 72.3797 94.6831 72.3797C94.4894 72.3797 94.2992 72.4311 94.1319 72.5288L83.7227 78.6013C83.7314 78.4919 83.7456 78.3825 83.7456 78.2666V73.7144C83.9065 73.5763 84.053 73.4224 84.1831 73.255L85.7669 71.143C86.5839 70.0522 87.0273 68.7269 87.0312 67.3641C87.0282 66.3023 86.671 65.2719 86.0162 64.4361L87.0094 59.4738C87.0246 59.4018 87.0319 59.3285 87.0312 59.255C87.0371 57.3847 86.6128 55.538 85.791 53.8578C84.9692 52.1777 83.7721 50.709 82.292 49.5655C79.4995 47.3997 76.2169 45.9547 72.7337 45.3578C72.0483 44.2557 71.0933 43.3465 69.9588 42.7161C68.8243 42.0857 67.5479 41.7549 66.25 41.7549C64.9521 41.7549 63.6757 42.0857 62.5412 42.7161C61.4067 43.3465 60.4517 44.2557 59.7663 45.3578C56.2831 45.9547 53.0005 47.3997 50.208 49.5655C48.7279 50.709 47.5308 52.1777 46.709 53.8578C45.8872 55.538 45.4629 57.3847 45.4688 59.255C45.4681 59.3285 45.4754 59.4018 45.4906 59.4738L46.4837 64.4405C45.8299 65.2751 45.4727 66.3038 45.4688 67.3641C45.4718 68.7262 45.9132 70.0512 46.7277 71.143L48.3125 73.255C48.4432 73.4215 48.5897 73.575 48.75 73.7133V78.2655C48.7499 78.7852 48.8521 79.2999 49.0509 79.7802C49.2497 80.2604 49.5412 80.6968 49.9086 81.0643C50.2761 81.4319 50.7124 81.7235 51.1926 81.9224C51.6728 82.1214 52.1874 82.2238 52.7072 82.2238H58.1409L59.6656 83.7484C59.5556 85.6996 58.7037 87.5349 57.2843 88.8782C55.8649 90.2216 53.9855 90.9713 52.0312 90.9738H50.6094C49.3598 90.9738 48.1224 91.2199 46.9679 91.6981C45.8134 92.1763 44.7644 92.8772 43.8808 93.7608C42.9972 94.6444 42.2963 95.6934 41.8181 96.8479C41.3399 98.0024 41.0938 99.2398 41.0938 100.489V108.474H43.2812V100.489C43.2743 98.6234 43.9845 96.8261 45.2651 95.469C46.5457 94.1118 48.2988 93.2986 50.162 93.1973L53.1808 102.255C53.253 102.473 53.3921 102.663 53.5785 102.798C53.7648 102.932 53.9888 103.005 54.2188 103.005H58.1891L65.538 109.304C65.7361 109.473 65.9882 109.566 66.2489 109.566C66.5096 109.566 66.7617 109.473 66.9598 109.304L74.3109 103.005H78.2812C78.5109 103.005 78.7347 102.933 78.921 102.799C79.1073 102.664 79.2467 102.475 79.3192 102.257L81.7878 94.8511C83.0057 97.5004 85.0078 99.7117 87.5234 101.186L89.2188 102.17V108.474H91.4062V103.451L94.1406 105.044C94.3079 105.141 94.4982 105.193 94.6919 105.193C94.8856 105.193 95.0758 105.141 95.2431 105.044L101.856 101.186C103.999 99.9297 105.776 98.1356 107.013 95.9813C108.249 93.827 108.902 91.3872 108.906 88.9033V81.13C108.906 80.9384 108.855 80.7502 108.759 80.5844C108.663 80.4185 108.525 80.2808 108.359 80.185ZM52.3911 64.9316C52.1517 63.9777 52.0308 62.998 52.0312 62.0145V61.4425C52.0321 60.7641 52.2428 60.1025 52.6344 59.5485C53.026 58.9946 53.5794 58.5753 54.2188 58.3483V62.5363C54.2188 63.4065 54.5645 64.2411 55.1798 64.8564C55.7952 65.4718 56.6298 65.8175 57.5 65.8175H68.4375C68.6408 65.8176 68.84 65.7611 69.0129 65.6542C69.1858 65.5474 69.3256 65.3945 69.4164 65.2127L70.625 62.7944L71.8336 65.2127C71.9244 65.3945 72.0642 65.5474 72.2371 65.6542C72.41 65.7611 72.6092 65.8176 72.8125 65.8175H73.0214C74.416 65.8161 75.753 65.2614 76.7391 64.2753C77.7252 63.2892 78.2798 61.9522 78.2812 60.5577V58.3483C78.9206 58.5753 79.474 58.9946 79.8656 59.5485C80.2572 60.1025 80.4679 60.7641 80.4688 61.4425V62.0145C80.4692 62.998 80.3483 63.9777 80.1089 64.9316L77.9531 73.5503C77.5202 75.2812 76.6249 76.8619 75.3631 78.1233L71.0756 82.4119C69.7951 83.6921 68.0585 84.4113 66.2478 84.4113C64.4371 84.4113 62.7005 83.6921 61.42 82.4119L57.1325 78.1233C55.8723 76.8613 54.9786 75.2807 54.5469 73.5503L52.3911 64.9316ZM80.5781 79.8492C80.3326 79.972 80.0619 80.0361 79.7873 80.0363H76.5466L76.913 79.6709C78.326 78.2475 79.3604 76.493 79.9219 74.5675H81.5625V78.2666C81.563 78.5961 81.4711 78.9191 81.297 79.1989C81.123 79.4787 80.8739 79.704 80.5781 79.8492ZM66.25 86.5988C67.8641 86.5993 69.4483 86.1636 70.835 85.3377C71.2081 87.1015 72.0595 88.7287 73.2959 90.0408L72.9459 90.3908C72.0667 91.2702 71.0228 91.9678 69.8739 92.4438C68.725 92.9197 67.4936 93.1647 66.25 93.1647C65.0064 93.1647 63.775 92.9197 62.6261 92.4438C61.4772 91.9678 60.4333 91.2702 59.5541 90.3908L59.2041 90.0408C60.4405 88.7287 61.2919 87.1015 61.665 85.3377C63.0517 86.1636 64.6359 86.5993 66.25 86.5988ZM66.25 95.3488C68.2284 95.3511 70.1745 94.8465 71.9025 93.8831L66.25 105.903L60.5975 93.8831C62.3255 94.8465 64.2716 95.3511 66.25 95.3488ZM72.8344 83.7484L74.3591 82.2238H79.7928C80.02 82.2172 80.2461 82.1908 80.4688 82.145V88.9033C80.4703 89.5964 80.5233 90.2885 80.6273 90.9738H80.4688C78.5145 90.9713 76.6351 90.2216 75.2157 88.8782C73.7963 87.5349 72.9444 85.6996 72.8344 83.7484ZM84.0213 69.8294L82.4375 71.9425C82.3356 72.0783 82.2035 72.1886 82.0516 72.2645C81.8998 72.3405 81.7323 72.38 81.5625 72.38H80.5027L82.2319 65.4631C82.2909 65.2247 82.3194 64.9808 82.3664 64.7402C83.0371 64.7763 83.6682 65.0689 84.1293 65.5572C84.5903 66.0456 84.8461 66.6924 84.8438 67.3641C84.842 68.2529 84.5536 69.1175 84.0213 69.8294ZM66.25 43.9425C67.3316 43.9425 68.3889 44.2632 69.2883 44.8642C70.1876 45.4651 70.8885 46.3192 71.3025 47.3185C71.7164 48.3177 71.8247 49.4173 71.6137 50.4782C71.4027 51.539 70.8818 52.5134 70.117 53.2782C69.3522 54.0431 68.3777 54.5639 67.3169 54.7749C66.2561 54.9859 65.1565 54.8776 64.1572 54.4637C63.1579 54.0498 62.3038 53.3489 61.7029 52.4495C61.102 51.5502 60.7812 50.4929 60.7812 49.4113C60.783 47.9614 61.3597 46.5714 62.3849 45.5462C63.4101 44.521 64.8001 43.9442 66.25 43.9425ZM51.5511 51.2925C53.6871 49.6371 56.1461 48.4474 58.7698 47.8002C58.5276 48.9174 58.5386 50.0747 58.802 51.1871C59.0655 52.2995 59.5747 53.3388 60.2923 54.2287C61.0099 55.1186 61.9177 55.8365 62.949 56.3297C63.9803 56.823 65.109 57.079 66.2522 57.079C67.3954 57.079 68.5241 56.823 69.5554 56.3297C70.5867 55.8365 71.4945 55.1186 72.2121 54.2287C72.9297 53.3388 73.4389 52.2995 73.7024 51.1871C73.9658 50.0747 73.9768 48.9174 73.7345 47.8002C76.3584 48.447 78.8175 49.6367 80.9533 51.2925C82.1544 52.2212 83.1287 53.4107 83.8026 54.7712C84.4766 56.1316 84.8326 57.6274 84.8438 59.1456L84.0891 62.918C83.6211 62.7261 83.1257 62.6098 82.6213 62.5734C82.6289 62.3864 82.6562 62.1994 82.6562 62.0113V61.4425C82.6545 59.9926 82.0778 58.6026 81.0526 57.5774C80.0274 56.5522 78.6374 55.9755 77.1875 55.9738C76.8974 55.9738 76.6192 56.089 76.4141 56.2941C76.209 56.4992 76.0938 56.7774 76.0938 57.0675V60.5577C76.0926 61.2947 75.827 62.0068 75.3453 62.5646C74.8636 63.1223 74.1977 63.4888 73.4688 63.5972L71.6094 59.8598C71.5083 59.6903 71.365 59.55 71.1934 59.4525C71.0218 59.355 70.8278 59.3038 70.6305 59.3038C70.4331 59.3038 70.2392 59.355 70.0676 59.4525C69.896 59.55 69.7526 59.6903 69.6516 59.8598L67.7616 63.63H57.5C57.2099 63.63 56.9317 63.5148 56.7266 63.3097C56.5215 63.1045 56.4062 62.8263 56.4062 62.5363V57.0675C56.4062 56.7774 56.291 56.4992 56.0859 56.2941C55.8808 56.089 55.6026 55.9738 55.3125 55.9738C53.8626 55.9755 52.4726 56.5522 51.4474 57.5774C50.4222 58.6026 49.8455 59.9926 49.8438 61.4425V62.0145C49.8438 62.2027 49.8711 62.3897 49.8787 62.5767C49.3743 62.613 48.8789 62.7293 48.4109 62.9213L47.6562 59.1456C47.6679 57.6271 48.0246 56.131 48.6993 54.7705C49.3741 53.4101 50.3492 52.2208 51.5511 51.2925ZM47.6562 67.3641C47.6536 66.6922 47.9093 66.0451 48.3704 65.5565C48.8315 65.0679 49.4627 64.7753 50.1336 64.7391C50.1806 64.9797 50.2091 65.2236 50.2681 65.462L51.9973 72.38H50.9375C50.7677 72.38 50.6002 72.3405 50.4484 72.2645C50.2965 72.1886 50.1644 72.0783 50.0625 71.9425L48.4777 69.8294C47.9461 69.1172 47.6581 68.2527 47.6562 67.3641ZM52.7072 80.0363C52.4323 80.0359 52.1613 79.9719 51.9153 79.8492C51.6208 79.703 51.3732 79.4773 51.2003 79.1976C51.0275 78.9179 50.9365 78.5953 50.9375 78.2666V74.5675H52.5781C53.139 76.4928 54.1726 78.2472 55.5848 79.6709L55.9513 80.0363H52.7072ZM58.5938 100.818H55.0073L52.448 93.1405C54.1124 93.0712 55.7315 92.5772 57.1511 91.7055L63.0858 104.325L59.3014 101.081C59.1043 100.912 58.8534 100.819 58.5938 100.818ZM77.4927 100.818H73.9062C73.645 100.818 73.3925 100.911 73.1942 101.081L69.4098 104.325L75.3445 91.7055C76.7641 92.5772 78.3832 93.0712 80.0477 93.1405L77.4927 100.818ZM106.719 88.9033C106.714 91.0051 106.161 93.0693 105.114 94.8917C104.067 96.7141 102.563 98.2316 100.749 99.2939L94.6875 102.832L88.6259 99.2961C86.8121 98.2336 85.3071 96.7158 84.2601 94.893C83.213 93.0701 82.6602 91.0054 82.6562 88.9033V81.7578L94.6875 74.7403L106.719 81.7578V88.9033Z" fill="#E55670" stroke="#FDF3F5" stroke-width="0.8"/>
<path d="M89.992 86.9194C89.7869 86.7143 89.5088 86.5991 89.2188 86.5991C88.9287 86.5991 88.6506 86.7143 88.4455 86.9194L85.1642 90.2006C84.9592 90.4057 84.844 90.6839 84.844 90.9739C84.844 91.2639 84.9592 91.5421 85.1642 91.7472L91.7267 98.3097C91.9318 98.5147 92.21 98.6299 92.5 98.6299C92.79 98.6299 93.0682 98.5147 93.2733 98.3097L105.305 86.2784C105.51 86.0733 105.625 85.7952 105.625 85.5051C105.625 85.2151 105.51 84.937 105.305 84.7319L102.023 81.4506C101.818 81.2456 101.54 81.1304 101.25 81.1304C100.96 81.1304 100.682 81.2456 100.477 81.4506L92.5 89.4273L89.992 86.9194ZM101.25 83.7705L102.985 85.5051L92.5 95.9898L87.4841 90.9739L89.2188 89.2392L91.7267 91.7472C91.9318 91.9522 92.21 92.0674 92.5 92.0674C92.79 92.0674 93.0682 91.9522 93.2733 91.7472L101.25 83.7705Z" fill="#E55670" stroke="#FDF3F5" stroke-width="0.8"/>
<path d="M65.1562 52.6924H67.3438V50.5049H69.5312V48.3174H67.3438V46.1299H65.1562V48.3174H62.9688V50.5049H65.1562V52.6924Z" fill="#E55670" stroke="#FDF3F5" stroke-width="0.8"/>
</svg>
