<svg width="150" height="151" viewBox="0 0 150 151" fill="none" xmlns="http://www.w3.org/2000/svg">
<rect y="0.661133" width="150" height="150" rx="75" fill="#E55670" fill-opacity="0.05"/>
<g clip-path="url(#clip0_66_518)">
<path d="M78.7922 69.3804C78.2248 69.3804 77.7649 69.8403 77.7649 70.4078V72.6202C77.7649 73.1876 78.2248 73.6476 78.7922 73.6476C79.3596 73.6476 79.8195 73.1876 79.8195 72.6202V70.4078C79.8194 69.8403 79.3596 69.3804 78.7922 69.3804Z" fill="#E55670" stroke="#FDF3F5" stroke-width="0.6"/>
<path d="M88.3542 69.3804C87.7868 69.3804 87.3269 69.8403 87.3269 70.4078V72.6202C87.3269 73.1876 87.7867 73.6476 88.3542 73.6476C88.9216 73.6476 89.3815 73.1876 89.3815 72.6202V70.4078C89.3815 69.8403 88.9216 69.3804 88.3542 69.3804Z" fill="#E55670" stroke="#FDF3F5" stroke-width="0.6"/>
<path d="M106.233 40.6611H61.3124C59.2355 40.6611 57.5458 42.3511 57.5458 44.4283V51.2794C57.4841 51.2788 57.4234 51.2767 57.3614 51.2767C49.8813 51.2767 44.7992 55.4027 42.256 63.5403C42.0867 64.0819 42.3886 64.6581 42.93 64.8274C43.4716 64.9965 44.0477 64.6949 44.2169 64.1532C46.4928 56.8713 50.7923 53.3314 57.3614 53.3314C62.8858 53.3314 66.7723 55.8133 69.2429 60.9189C71.3533 65.2801 71.9149 70.532 72.2865 74.0072L72.3386 74.4927C72.7355 78.1646 73.3997 84.3101 69.8894 88.2207C69.8261 88.2912 69.7608 88.3604 69.695 88.429C69.6934 88.4308 69.6916 88.4326 69.69 88.4345C67.2286 91.0041 63.0835 92.3069 57.3612 92.3069C51.482 92.3069 47.267 90.9321 44.8331 88.2207C41.3229 84.3101 41.9871 78.1645 42.384 74.4926L42.4359 74.0081C42.6153 72.3308 42.8384 70.2434 43.2605 68.0332C43.3668 67.4758 43.0014 66.9378 42.4441 66.8313C41.8873 66.7249 41.3489 67.0904 41.2425 67.6478C40.8046 69.941 40.5765 72.0749 40.3932 73.7896L40.3414 74.2718C39.9301 78.0774 39.2591 84.3132 42.7072 88.8646C41.1544 91.0805 40.3355 93.67 40.3355 96.4066V109.634C40.3355 110.201 40.7954 110.661 41.3628 110.661H72.8901C73.4575 110.661 73.9175 110.201 73.9175 109.634V103.322H80.527C81.0944 103.322 81.5543 102.863 81.5543 102.295C81.5543 101.728 81.0944 101.268 80.527 101.268H73.9175V99.0759H103.482C104.803 99.0759 105.879 98.0004 105.879 96.6786V47.305C105.879 45.9832 104.803 44.9078 103.482 44.9078H94.0701C93.5027 44.9078 93.0428 45.3678 93.0428 45.9352C93.0428 46.5026 93.5026 46.9626 94.0701 46.9626H103.482C103.671 46.9626 103.824 47.1163 103.824 47.3051V96.6789C103.824 96.8677 103.671 97.0214 103.482 97.0214H100.364V96.4067C100.364 93.7434 99.5697 91.2625 98.2066 89.1871C101.942 84.614 101.251 78.185 100.828 74.2719L100.776 73.7889C100.39 70.1723 99.805 64.7067 97.539 60.0239C94.7303 54.2197 90.1106 51.2768 83.808 51.2768C77.8673 51.2768 73.4294 53.8899 70.5859 59.0467C68.8717 55.9378 66.5761 53.7529 63.7215 52.5085V47.305C63.7215 47.1162 63.8752 46.9625 64.064 46.9625H89.9607C90.5281 46.9625 90.988 46.5024 90.988 45.9351C90.988 45.3677 90.5281 44.9076 89.9607 44.9076H64.0641C62.7425 44.9076 61.6672 45.983 61.6672 47.3048V51.8013C61.0033 51.6279 60.3145 51.4966 59.6003 51.4094V44.4283C59.6003 43.4841 60.3684 42.7159 61.3124 42.7159H106.233C107.177 42.7159 107.946 43.484 107.946 44.4283V99.5553C107.946 100.5 107.177 101.268 106.233 101.268H84.6358C84.0684 101.268 83.6085 101.728 83.6085 102.295C83.6085 102.863 84.0683 103.323 84.6358 103.323H106.233C108.31 103.323 110 101.633 110 99.5555V44.4283C110 42.3511 108.31 40.6611 106.233 40.6611ZM71.8627 108.606H67.6898V99.8892C67.6898 99.3218 67.2299 98.8618 66.6625 98.8618C66.0951 98.8618 65.6352 99.3218 65.6352 99.8892V108.606H48.6175V99.8892C48.6175 99.3218 48.1576 98.8618 47.5902 98.8618C47.0228 98.8618 46.5629 99.3218 46.5629 99.8892V108.606H42.39V96.4066C42.39 94.2528 42.9911 92.2072 44.1341 90.4246C47.0275 93.0381 51.4692 94.3618 57.3614 94.3618C63.0501 94.3618 67.3869 93.1278 70.2836 90.6906C71.3187 92.4122 71.8628 94.3662 71.8628 96.4066V108.606H71.8627ZM98.3096 96.4066V97.0213H73.9173V96.4066C73.9173 93.8111 73.1741 91.3332 71.7647 89.1874C72.046 88.8426 72.3008 88.4864 72.5339 88.1222C74.3219 86.5163 76.56 85.5425 78.9346 85.323C78.9469 85.6181 78.9713 85.9535 79.0157 86.3104C79.2204 87.9553 79.7346 89.2321 80.5439 90.1051C81.3195 90.9418 82.3671 91.3839 83.5734 91.3839C84.7796 91.3839 85.8272 90.9418 86.6028 90.1051C87.4121 89.232 87.9263 87.9553 88.131 86.3104C88.1753 85.9541 88.1995 85.6195 88.2119 85.3248C93.8665 85.8476 98.3096 90.6169 98.3096 96.4066ZM83.5732 83.2207C78.6991 83.2207 74.7337 79.2548 74.7337 74.3801V68.9253C77.0292 68.4846 83.1756 66.9989 86.6037 63.2468C87.6104 64.8832 89.5692 67.4929 92.4125 68.7571V74.3801C92.4126 79.2548 88.4472 83.2207 83.5732 83.2207ZM86.1597 85.2755C86.1083 86.3588 85.8642 87.8821 85.0937 88.7108C84.7013 89.1327 84.2181 89.3293 83.5732 89.3293C82.9283 89.3293 82.4453 89.1327 82.0528 88.7108C81.2819 87.882 81.038 86.3583 80.9866 85.2755H86.1597ZM77.5382 83.4452C76.3326 83.6701 75.168 84.0617 74.0758 84.6079C74.4366 83.3058 74.6191 81.9725 74.6884 80.6727C75.4614 81.7612 76.4272 82.703 77.5382 83.4452ZM83.8081 53.3315C89.3326 53.3315 93.219 55.8134 95.6898 60.919C97.8002 65.2802 98.3618 70.5321 98.7334 74.0074L98.7854 74.4929C99.2673 78.951 99.5336 83.9384 96.9056 87.514C95.0133 85.4457 92.4721 83.9812 89.6077 83.4458C92.5347 81.4904 94.4671 78.1572 94.4671 74.3802V68.0598C94.4671 67.6225 94.1903 67.2331 93.7772 67.0894C89.9517 65.7591 87.7132 61.0192 87.6844 60.9572C87.5275 60.6176 87.1987 60.3899 86.8256 60.363C86.4522 60.3358 86.0938 60.5143 85.8899 60.8284C82.7384 65.685 73.6536 67.0297 73.5628 67.0425C73.4965 67.0518 73.4325 67.0678 73.3711 67.0889C72.9891 65.2162 72.4624 63.2696 71.7034 61.4023C74.1545 55.9738 78.1176 53.3315 83.8081 53.3315Z" fill="#E55670" stroke="#FDF3F5" stroke-width="0.6"/>
<path d="M86.7619 75.0752C86.3322 75.0752 85.9645 75.3392 85.8113 75.7138H85.8112C85.7655 75.8107 85.3213 76.6602 83.8141 76.6602C82.3069 76.6602 81.8627 75.8106 81.8169 75.7138H81.8168C81.6635 75.3393 81.2959 75.0752 80.8662 75.0752C80.2988 75.0752 79.8389 75.5351 79.8389 76.1026C79.8389 76.2506 79.8707 76.3907 79.9269 76.5177L79.9264 76.518C79.9634 76.6077 80.8648 78.7151 83.814 78.7151C86.763 78.7151 87.6644 76.6077 87.7014 76.518L87.7009 76.5177C87.7571 76.3907 87.7889 76.2504 87.7889 76.1026C87.7891 75.5353 87.3291 75.0752 86.7619 75.0752Z" fill="#E55670" stroke="#FDF3F5" stroke-width="0.6"/>
</g>
<defs>
<clipPath id="clip0_66_518">
<rect width="70" height="70" fill="white" transform="translate(40 40.6611)"/>
</clipPath>
</defs>
</svg>
