<svg width="150" height="151" viewBox="0 0 150 151" fill="none" xmlns="http://www.w3.org/2000/svg">
<rect y="0.661133" width="150" height="150" rx="75" fill="#E55670" fill-opacity="0.05"/>
<g clip-path="url(#clip0_66_530)">
<path d="M80.2046 40.8192L80.2046 40.8194L80.2115 40.8199L106.837 42.8238L106.848 42.6743L106.837 42.8238C107.395 42.8657 107.822 43.3243 107.836 43.8717L107.836 43.8717L107.836 43.879L109.843 70.5034C109.867 70.8298 109.744 71.1332 109.529 71.3485L72.306 108.572C70.9587 109.919 69.1521 110.56 67.3246 110.504C65.518 110.449 63.6951 109.713 62.2937 108.312L42.345 88.3633C40.9436 86.9619 40.2084 85.139 40.1534 83.3325L40.0034 83.337L40.1534 83.3325C40.0974 81.5049 40.7377 79.6983 42.0851 78.351L79.3085 41.1276C79.553 40.883 79.8856 40.7801 80.2046 40.8192ZM105.759 45.0361L105.75 44.9075L105.621 44.8978L80.5557 43.0101L80.4871 43.0049L80.4384 43.0536L43.613 79.879C42.6981 80.794 42.2666 82.0278 42.3048 83.2745C42.3435 84.5441 42.8706 85.833 43.873 86.8354L63.8217 106.784C64.824 107.786 66.1129 108.313 67.3825 108.352C68.6292 108.39 69.8631 107.959 70.778 107.044L107.603 70.2186L107.652 70.1699L107.647 70.1013L105.759 45.0361Z" fill="#E55670" stroke="#FDF3F5" stroke-width="0.3"/>
<path d="M82.6877 80.3071C82.6877 80.9038 82.2038 81.3876 81.6072 81.3876H59.1008C58.5042 81.3876 58.0204 80.9038 58.0204 80.3071C58.0204 79.7105 58.5042 79.2267 59.1008 79.2267H81.6072C82.2038 79.2267 82.6877 79.7105 82.6877 80.3071Z" fill="#E55670" stroke="#FDF3F5" stroke-width="0.3"/>
<path d="M75.85 70.9694C75.85 72.4869 75.2348 73.8607 74.2403 74.8552C73.2457 75.8498 71.8719 76.465 70.3544 76.465C68.837 76.465 67.4629 75.8499 66.4684 74.8554C65.4738 73.8609 64.8587 72.4868 64.8587 70.9694C64.8587 69.452 65.4738 68.0779 66.4684 67.0833C67.4629 66.0888 68.837 65.4737 70.3544 65.4737C71.8719 65.4737 73.2457 66.0888 74.2403 67.0833C75.2348 68.0779 75.85 69.4518 75.85 70.9694ZM72.7123 73.3273C73.3154 72.7242 73.6891 71.89 73.6891 70.9694C73.6891 70.0486 73.3154 69.2144 72.7123 68.6113C72.1091 68.0082 71.2752 67.6347 70.3544 67.6347C69.4336 67.6347 68.5995 68.0082 67.9963 68.6113C67.3932 69.2145 67.0197 70.0486 67.0197 70.9694C67.0197 71.8902 67.3932 72.7243 67.9963 73.3274C68.5995 73.9306 69.4336 74.3041 70.3544 74.3041C71.275 74.3041 72.1092 73.9304 72.7123 73.3273Z" fill="#E55670" stroke="#FDF3F5" stroke-width="0.3"/>
<path d="M75.85 89.6447C75.85 91.1621 75.235 92.5362 74.2404 93.5307C73.2459 94.5252 71.8718 95.1403 70.3544 95.1403C68.8367 95.1403 67.4629 94.5252 66.4684 93.5307C65.4738 92.5362 64.8587 91.1624 64.8587 89.6447C64.8587 88.1273 65.4738 86.7532 66.4684 85.7586C67.4629 84.7641 68.837 84.149 70.3544 84.149C71.8719 84.149 73.2457 84.7643 74.2403 85.7588C75.2348 86.7534 75.85 88.1271 75.85 89.6447ZM72.7124 92.0027C73.3156 91.3996 73.6891 90.5655 73.6891 89.6447C73.6891 88.724 73.3154 87.8899 72.7123 87.2868C72.1092 86.6836 71.275 86.31 70.3544 86.31C69.4336 86.31 68.5995 86.6835 67.9963 87.2866C67.3932 87.8898 67.0197 88.7239 67.0197 89.6447C67.0197 90.5655 67.3932 91.3996 67.9963 92.0027C68.5995 92.6059 69.4336 92.9794 70.3544 92.9794C71.2752 92.9794 72.1093 92.6059 72.7124 92.0027Z" fill="#E55670" stroke="#FDF3F5" stroke-width="0.3"/>
<path d="M43.5013 76.9395C43.9231 76.5177 44.6074 76.5177 45.0293 76.9395L73.7219 105.632C74.1437 106.054 74.1437 106.738 73.7219 107.16C73.3001 107.582 72.6157 107.582 72.1939 107.16L43.5013 78.4675C43.0795 78.0457 43.0795 77.3613 43.5013 76.9395Z" fill="#E55670" stroke="#FDF3F5" stroke-width="0.3"/>
<path d="M99.735 56.422C99.735 57.9395 99.1198 59.3133 98.1253 60.3079C97.1307 61.3024 95.7569 61.9177 94.2394 61.9177C92.722 61.9177 91.3479 61.3026 90.3534 60.308C89.3588 59.3135 88.7438 57.9394 88.7438 56.422C88.7438 54.9046 89.3588 53.5305 90.3534 52.536C91.3479 51.5414 92.722 50.9264 94.2394 50.9264C95.7569 50.9264 97.1307 51.5414 98.1253 52.536C99.1198 53.5305 99.735 54.9045 99.735 56.422ZM96.5973 58.7799C97.2004 58.1768 97.5741 57.3427 97.5741 56.422C97.5741 55.5012 97.2004 54.6671 96.5973 54.064C95.9942 53.4608 95.1602 53.0873 94.2394 53.0873C93.3186 53.0873 92.4845 53.4608 91.8813 54.064C91.2782 54.6671 90.9047 55.5012 90.9047 56.422C90.9047 57.3428 91.2782 58.1769 91.8813 58.7801C92.4845 59.3832 93.3186 59.7567 94.2394 59.7567C95.16 59.7567 95.9942 59.383 96.5973 58.7799Z" fill="#E55670" stroke="#FDF3F5" stroke-width="0.3"/>
</g>
<defs>
<clipPath id="clip0_66_530">
<rect width="70" height="70" fill="white" transform="translate(40 40.6611)"/>
</clipPath>
</defs>
</svg>
