<svg width="150" height="151" viewBox="0 0 150 151" fill="none" xmlns="http://www.w3.org/2000/svg">
<rect y="0.661133" width="150" height="150" rx="75" fill="#E55670" fill-opacity="0.05"/>
<g clip-path="url(#clip0_66_563)">
<path d="M96.3729 96.1242C95.6964 95.9686 95.0575 95.8217 94.4601 95.6743C94.3039 95.6356 94.2345 95.562 94.2183 95.5363V89.7802C94.981 89.1915 95.7244 88.5408 96.4303 87.8365C98.7857 85.4861 100.516 82.7679 101.538 79.8731C105.324 77.4084 107.167 73.3878 107.167 67.5947C107.167 61.6893 105.702 56.3196 102.93 52.0667C102.621 51.5922 101.986 51.4585 101.512 51.7675C101.037 52.0767 100.903 52.7119 101.212 53.1865C103.766 57.1055 105.116 62.0878 105.116 67.5947C105.116 71.4323 104.224 74.3523 102.403 76.4382C102.544 75.5191 102.617 74.5903 102.617 73.6574C102.617 65.4929 100.981 59.7759 97.6153 56.1799C94.8756 53.2526 91.0618 51.8297 85.9548 51.8297C85.9473 51.8297 85.9391 51.8297 85.9314 51.8297C74.8171 51.8391 69.1817 59.1829 69.1817 73.6574C69.1817 74.5903 69.2546 75.5191 69.3957 76.4382C67.5753 74.3518 66.6829 71.4317 66.6829 67.5947C66.6829 52.0509 76.3342 45.0933 85.8989 45.0933C90.8447 45.0933 95.0259 46.6542 98.3259 49.7328C98.7403 50.1192 99.389 50.0966 99.7753 49.6824C100.162 49.2682 100.139 48.6195 99.725 48.2331C96.0847 44.8373 91.3038 43.0425 85.8989 43.0425C79.3376 43.0425 73.838 45.62 69.9945 50.4967C66.5366 54.8842 64.6321 60.9563 64.6321 67.5947C64.6321 73.3876 66.4747 77.4087 70.2607 79.8742C70.7874 81.3647 71.5018 82.8084 72.3926 84.1791L67.6447 86.9203C66.7928 86.1343 65.5788 85.8025 64.4163 86.1038L60.7482 87.0546L60.5881 86.7772C59.9866 85.7354 58.6496 85.3772 57.6077 85.9787L54.6884 87.6641C53.4658 88.3699 52.4289 89.3791 51.6901 90.5821C50.9801 91.738 49.944 92.6279 48.6944 93.1551L47.4143 93.6951C46.8926 93.9153 46.6479 94.5167 46.8681 95.0385C47.0881 95.5603 47.6901 95.8046 48.2114 95.5847L49.4915 95.0447C51.1377 94.3502 52.5023 93.1782 53.4376 91.6554C53.9987 90.742 54.7857 89.9761 55.714 89.4402L58.6332 87.7548C58.6958 87.7186 58.7761 87.7404 58.8123 87.8028L63.4897 95.9044C63.5259 95.967 63.5043 96.0474 63.4417 96.0836L60.5226 97.7689C59.5945 98.3049 58.5374 98.6036 57.4657 98.6326C55.6795 98.6811 53.9823 99.2768 52.5575 100.355L46.5572 104.897C46.1595 105.199 45.5876 105.083 45.3377 104.651L42.1619 99.1499C41.9125 98.718 42.0975 98.1646 42.5581 97.9702L43.8041 97.4444C44.3258 97.2243 44.5704 96.6228 44.3502 96.101C44.1299 95.579 43.5284 95.3348 43.0068 95.5548L41.7607 96.0806C40.9999 96.4018 40.4127 97.0349 40.1498 97.8179C39.8869 98.6009 39.9729 99.46 40.3859 100.175L43.5617 105.676C44.4248 107.171 46.4099 107.581 47.7951 106.532L53.7953 101.991C54.877 101.172 56.1654 100.719 57.5215 100.683C58.9329 100.644 60.3252 100.251 61.5479 99.5449L64.467 97.8596C65.5086 97.2582 65.867 95.9212 65.2657 94.8791L65.1056 94.6019L67.763 91.9006C68.6052 91.0444 68.925 89.8272 68.6701 88.6966L73.5964 85.8524C74.7504 87.3071 76.0975 88.6359 77.5809 89.781V95.5365C77.5648 95.5622 77.4949 95.6357 77.3395 95.6741C76.7402 95.8219 76.1011 95.9689 75.4246 96.1246C69.6743 97.4478 61.7993 99.2597 61.7993 105.658V106.332C61.7993 107.406 62.7677 108.28 63.9581 108.28H107.841C109.032 108.28 110 107.406 110 106.332V105.658C110 99.2593 102.124 97.4474 96.3729 96.1242ZM66.3009 90.4622L64.0415 92.7588L61.8122 88.8974L64.9307 88.0891C66.3202 87.7294 67.3091 89.4374 66.3009 90.4622ZM71.3647 70.0835C75.7132 68.8335 80.72 68.1734 85.8993 68.1734C91.0842 68.1734 96.0934 68.8347 100.441 70.0868C100.495 70.8308 100.532 71.6 100.551 72.3948L97.7375 74.2701C97.1113 74.6867 96.3838 74.907 95.6335 74.907H91.3731C90.5226 74.907 89.7434 74.4067 89.3888 73.6341L89.0064 72.7978C87.7924 70.1516 84.0117 70.1401 82.7914 72.799L82.4104 73.6326C82.055 74.4067 81.2759 74.9068 80.4253 74.9068H76.165C75.4147 74.9068 74.6871 74.6867 74.0618 74.2707L71.2486 72.3952C71.2682 71.5993 71.3073 70.8292 71.3647 70.0835ZM75.8614 57.5952C78.2544 55.0992 81.5489 53.8841 85.9333 53.8803H85.9545C90.4627 53.8803 93.7874 55.091 96.1179 57.5812C98.2513 59.8607 99.6241 63.319 100.221 67.8979C95.8793 66.7353 90.9647 66.1225 85.8993 66.1225C80.8437 66.1225 75.936 66.7332 71.5967 67.8919C72.2214 63.3549 73.6482 59.9037 75.8614 57.5952ZM75.3975 84.8122L76.0387 84.442C76.5291 84.1589 76.6972 83.5317 76.414 83.0413C76.1309 82.5508 75.5035 82.3829 75.0133 82.666L74.1765 83.1492C72.7893 81.0422 71.5304 78.2543 71.2791 74.8803L72.9251 75.9776C73.889 76.6187 75.0092 76.9578 76.165 76.9578H80.4253C82.0749 76.9578 83.5473 75.9702 84.2749 74.4868C84.5882 73.8481 84.6487 73.4012 85.1595 73.0729C85.8714 72.6182 86.8012 72.909 87.1419 73.6518L87.5243 74.4883C88.213 75.9886 89.7237 76.9579 91.3732 76.9579H95.6337C96.7893 76.9579 97.9098 76.619 98.8743 75.9772L100.519 74.8804C100.104 80.4628 96.9278 84.443 94.9816 86.3849C91.6494 89.7101 87.9376 91.2245 85.8993 91.2245C83.8609 91.2245 80.1492 89.7101 76.8169 86.3849C76.3891 85.958 75.9017 85.4312 75.3975 84.8122ZM107.949 106.212C107.923 106.221 107.887 106.229 107.841 106.229H63.9581C63.9124 106.229 63.8762 106.221 63.8501 106.212V105.657C63.8501 100.892 70.5228 99.3568 75.8844 98.123C76.569 97.9655 77.2156 97.8168 77.8315 97.6648C78.8914 97.4021 79.6316 96.5325 79.6316 95.5497V91.1865C81.8286 92.5094 84.0515 93.2751 85.8991 93.2751C87.7469 93.2751 89.9701 92.5092 92.1674 91.1861V95.5497C92.1674 96.5321 92.9068 97.4017 93.9672 97.665C94.5819 97.8167 95.2286 97.9654 95.913 98.1228C101.275 99.3565 107.949 100.892 107.949 105.657V106.212H107.949Z" fill="#E55670" stroke="#FDF3F5" stroke-width="0.5"/>
<path d="M89.9354 83.3773C90.447 83.1345 90.6648 82.5228 90.422 82.0112C90.1789 81.4996 89.5672 81.2818 89.0559 81.5247C86.932 82.5333 84.8667 82.5333 82.7428 81.5247C82.231 81.2816 81.6198 81.4996 81.3767 82.0112C81.1339 82.5228 81.3515 83.1343 81.8632 83.3773C83.2023 84.0132 84.5509 84.331 85.8995 84.331C87.2481 84.331 88.5964 84.0132 89.9354 83.3773Z" fill="#E55670" stroke="#FDF3F5" stroke-width="0.5"/>
<path d="M46.1975 79.0763C48.3712 79.7956 49.2077 80.632 49.9271 82.8057C50.1703 83.5409 50.8263 84.016 51.5982 84.016C52.3703 84.016 53.0261 83.5409 53.2695 82.8057C53.9887 80.632 54.8252 79.7956 56.999 79.0763C57.7341 78.8331 58.2092 78.1771 58.2092 77.4052C58.2092 76.6333 57.7341 75.9773 56.999 75.7341C54.8252 75.0148 53.9887 74.1782 53.2695 72.0045C53.0262 71.2694 52.3703 70.7944 51.5982 70.7944C50.8263 70.7944 50.1704 71.2694 49.9271 72.0045C49.2077 74.1782 48.3712 75.0147 46.1975 75.7339C45.4624 75.9772 44.9873 76.6331 44.9873 77.4051C44.9873 78.177 45.4624 78.8331 46.1975 79.0763ZM51.5982 73.4078C52.4144 75.4475 53.5559 76.5888 55.5956 77.4052C53.5559 78.2214 52.4144 79.3629 51.5982 81.4026C50.782 79.3629 49.6405 78.2214 47.601 77.4052C49.6405 76.589 50.782 75.4475 51.5982 73.4078Z" fill="#E55670" stroke="#FDF3F5" stroke-width="0.5"/>
<path d="M51.6326 61.8745C53.771 62.5079 54.4081 63.1452 55.0417 65.2836C55.2294 65.9174 55.799 66.3435 56.4589 66.3435C57.1187 66.3435 57.6883 65.9176 57.876 65.2836C58.5094 63.1453 59.1467 62.5082 61.2851 61.8745C61.9189 61.6867 62.3449 61.1171 62.3448 60.4573C62.3448 59.7974 61.9189 59.2279 61.2851 59.0402C59.1465 58.4067 58.5094 57.7694 57.876 55.631C57.6881 54.9972 57.1187 54.5713 56.4589 54.5713C55.799 54.5713 55.2295 54.9972 55.0417 55.631C54.4081 57.7694 53.771 58.4067 51.6326 59.0401C50.9988 59.2278 50.5728 59.7974 50.5728 60.4572C50.5728 61.1171 50.9985 61.6867 51.6326 61.8745ZM56.4588 57.7094C57.0676 59.0259 57.8904 59.8485 59.2068 60.4573C57.8904 61.0661 57.0676 61.8888 56.4588 63.2052C55.85 61.8888 55.0273 61.0661 53.7109 60.4573C55.0273 59.8485 55.85 59.0259 56.4588 57.7094Z" fill="#E55670" stroke="#FDF3F5" stroke-width="0.5"/>
</g>
<defs>
<clipPath id="clip0_66_563">
<rect width="70" height="70" fill="white" transform="translate(40 40.6611)"/>
</clipPath>
</defs>
</svg>
