<svg width="150" height="151" viewBox="0 0 150 151" fill="none" xmlns="http://www.w3.org/2000/svg">
<rect y="0.661133" width="150" height="150" rx="75" fill="#E55670" fill-opacity="0.05"/>
<g clip-path="url(#clip0_66_484)">
<path d="M108.55 60.3813L99.2603 57.644C98.7166 57.4837 98.147 57.7946 97.9869 58.3378C97.8268 58.881 98.1376 59.4511 98.6806 59.6112L107.872 62.3202L104.099 63.4321L75.9208 61.1098C75.3556 61.063 74.8611 61.483 74.8146 62.0474C74.7681 62.6118 75.1879 63.107 75.7522 63.1536L98.642 65.04L75.648 71.8154C75.2239 71.9404 74.7756 71.9404 74.352 71.8154L65.3527 69.1636C64.8093 69.0037 64.2393 69.3141 64.0793 69.8573C63.9194 70.4006 64.2298 70.9708 64.773 71.1307L73.7723 73.7825C74.1738 73.9008 74.5868 73.96 74.9999 73.96C75.4129 73.96 75.8261 73.9008 76.2276 73.7825L92.5928 68.9602V73.1866C89.6598 75.1162 83.7939 78.011 75.0007 78.011C66.2062 78.011 60.3401 75.1162 57.4069 73.1866V68.9603L60.4079 69.8446C60.5047 69.873 60.6021 69.8867 60.6981 69.8867C61.1411 69.8867 61.5497 69.5974 61.6813 69.1509C61.8412 68.6076 61.5307 68.0375 60.9876 67.8775L42.1276 62.3195L74.352 52.8241C74.7759 52.6991 75.2242 52.6991 75.648 52.8241L94.2354 58.3012C94.7788 58.4611 95.3487 58.1506 95.5088 57.6075C95.6689 57.0641 95.3581 56.494 94.8151 56.3341L76.2276 50.8568C75.4244 50.6203 74.5755 50.6203 73.7724 50.8568L41.4496 60.3813C40.5826 60.6369 40 61.4158 40 62.3197C40 63.2237 40.5826 64.0028 41.4496 64.2583L55.3562 68.3562V77.5312L49.6696 75.7947C49.669 75.7946 49.6686 75.7945 49.6681 75.7942C47.4547 75.1188 44.8731 77.3673 43.7901 80.914C42.7072 84.4607 43.5924 87.7683 45.8056 88.4442C45.806 88.4444 45.8064 88.4444 45.8067 88.4445L85.35 100.519C85.622 100.602 85.8998 100.643 86.1807 100.643C87.1026 100.643 88.0566 100.201 88.9368 99.3511C89.9285 98.3939 90.7421 96.9904 91.228 95.3991C91.7139 93.8078 91.823 92.1892 91.5352 90.8413C91.2019 89.2803 90.377 88.2247 89.2126 87.8691L78.8559 84.7068C85.8295 84.1152 90.5148 82.0256 92.8578 80.7002C93.9595 80.0783 94.6436 78.9058 94.6436 77.6403V68.3563L103.18 65.8409V73.063C101.345 73.5223 99.9823 75.1844 99.9823 77.1595C99.9823 78.5342 100.643 79.7571 101.663 80.5288C101.131 81.1689 100.797 81.9748 100.588 82.7134C100.097 84.4559 100.009 86.6807 99.9884 88.6273C99.9807 89.3497 100.256 90.0304 100.764 90.5441C101.273 91.0578 101.951 91.3406 102.673 91.3406H105.737C106.46 91.3406 107.138 91.0578 107.646 90.5441C108.154 90.0304 108.43 89.3499 108.422 88.6273C108.401 86.6807 108.314 84.4557 107.822 82.7134C107.614 81.9748 107.28 81.1689 106.748 80.5288C107.768 79.7571 108.428 78.5342 108.428 77.1595C108.428 75.1844 107.065 73.5223 105.231 73.063V65.2364L108.55 64.2583C109.417 64.0028 110 63.2237 110 62.3199C110 61.4158 109.417 60.6369 108.55 60.3813ZM45.7513 81.5129C46.5769 78.8093 48.2411 77.5028 49.0691 77.7556C49.7223 77.9549 50.1433 79.1156 50.093 80.5781C50.0734 81.1441 50.5165 81.6187 51.0824 81.6382C51.6504 81.6577 52.123 81.2147 52.1425 80.6487C52.1677 79.9178 52.104 79.2421 51.9618 78.6388L68.8328 83.7903C68.8356 83.7912 68.8382 83.7924 68.841 83.7933C69.6697 84.0464 70.319 86.0595 69.4935 88.7629C68.6692 91.4622 67.0104 92.7684 66.1801 92.5212L49.291 87.3642C49.8221 86.8758 50.3183 86.2495 50.7484 85.5C51.0303 85.0088 50.8607 84.3822 50.3696 84.1003C49.8786 83.8186 49.2518 83.9882 48.9698 84.4791C48.0764 86.0359 47.0026 86.6648 46.4042 86.4826C45.5754 86.2295 44.926 84.2163 45.7513 81.5129ZM89.5296 91.2693C89.7428 92.2676 89.6468 93.5545 89.2666 94.7999C88.8864 96.0454 88.2469 97.1663 87.5125 97.8754C86.941 98.427 86.3563 98.6815 85.9488 98.5573L69.0564 93.3993C70.0643 92.475 70.9336 91.0694 71.455 89.3618C71.9766 87.6536 72.0405 86.002 71.7205 84.6722L88.6135 89.8304C89.0215 89.9548 89.3639 90.4927 89.5296 91.2693ZM91.8487 78.9147C89.7742 80.0881 83.98 82.8177 75.0012 82.8177C74.1387 82.8177 73.2709 82.7915 72.4192 82.7412L57.5146 78.1902C57.4439 78.0163 57.4069 77.8302 57.4069 77.6402V75.6005C60.8117 77.5996 66.6927 80.062 75.0007 80.062C83.3074 80.062 89.1881 77.5996 92.5928 75.6005V77.6402C92.593 78.1671 92.3082 78.6553 91.8487 78.9147ZM106.371 88.6488C106.373 88.8194 106.308 88.98 106.188 89.1013C106.068 89.2226 105.908 89.2894 105.738 89.2894H102.673C102.503 89.2894 102.342 89.2226 102.222 89.1013C102.102 88.98 102.037 88.8194 102.039 88.6488C102.076 85.2655 102.354 81.382 104.205 81.382C106.056 81.382 106.335 85.2655 106.371 88.6488ZM106.378 77.1592C106.378 78.357 105.403 79.3314 104.205 79.3314C103.008 79.3314 102.033 78.357 102.033 77.1592C102.033 75.9614 103.008 74.987 104.205 74.987C105.403 74.987 106.378 75.9614 106.378 77.1592Z" fill="#E55670" stroke="#FDF3F5" stroke-width="0.5"/>
</g>
<defs>
<clipPath id="clip0_66_484">
<rect width="70" height="70" fill="white" transform="translate(40 40.6611)"/>
</clipPath>
</defs>
</svg>
