<svg width="150" height="151" viewBox="0 0 150 151" fill="none" xmlns="http://www.w3.org/2000/svg">
<rect y="0.661133" width="150" height="150" rx="75" fill="#E55670" fill-opacity="0.05"/>
<g clip-path="url(#clip0_66_461)">
<mask id="path-2-inside-1_66_461" fill="white">
<path d="M108.833 95.4942C109.477 95.4942 110 94.9718 110 94.3276C110 93.6832 109.477 93.161 108.833 93.161H107.666C107.666 92.5166 107.144 91.9944 106.5 91.9944C105.855 91.9944 105.333 92.5166 105.333 93.161H86.6668C86.6668 92.5166 86.1444 91.9944 85.5002 91.9944C84.8559 91.9944 84.3336 92.5166 84.3336 93.161H83.167C82.5226 93.161 82.0004 93.6834 82.0004 94.3276C82.0004 94.9719 82.5226 95.4942 83.167 95.4942H84.3336V98.9941H83.167C82.5226 98.9941 82.0004 99.5164 82.0004 100.161C82.0004 100.805 82.5226 101.327 83.167 101.327H84.3336V102.494H83.167C82.5226 102.494 82.0004 103.016 82.0004 103.661C82.0004 104.305 82.5226 104.827 83.167 104.827H84.3336V108.327H64.5004V98.6749C66.2262 99.6474 68.1733 100.159 70.1542 100.161C76.7795 100.065 82.0779 94.6263 82.0001 88.0008C82.0361 83.3944 79.4638 79.1637 75.3573 77.076C76.7092 75.2356 77.4335 73.0091 77.4235 70.7256C77.4641 65.6858 73.9288 61.3234 68.9898 60.3191C70.2395 57.5632 70.0247 54.3643 68.4176 51.8003C66.8107 49.2362 64.0255 47.6483 61.0003 47.5716C60.9658 47.5716 60.9324 47.5765 60.8979 47.5769C60.2768 43.5619 56.7978 40.6149 52.7354 40.6622C48.673 40.7095 45.2637 43.7369 44.7363 47.7653C41.7821 48.3316 39.7427 51.0514 40.027 54.046C40.3112 57.0407 42.826 59.3281 45.8341 59.3282H52.6345C52.7398 59.6637 52.8646 59.9928 53.0083 60.3137C48.0696 61.3214 44.536 65.6854 44.5774 70.7257C44.5674 73.0093 45.2918 75.2357 46.6435 77.0762C42.5372 79.164 39.9649 83.3945 40.0008 88.0009C39.9229 94.6263 45.2215 100.065 51.8468 100.161C53.8277 100.159 55.7748 99.6476 57.5005 98.675V108.327H41.1676C40.5232 108.327 40.001 108.849 40.001 109.494C40.001 110.138 40.5232 110.66 41.1676 110.66H108.833C109.477 110.66 110 110.138 110 109.494C110 108.849 109.477 108.327 108.833 108.327H107.666V104.827H108.833C109.477 104.827 110 104.305 110 103.661C110 103.016 109.477 102.494 108.833 102.494H107.666V101.327H108.833C109.477 101.327 110 100.805 110 100.161C110 99.5165 109.477 98.9943 108.833 98.9943H107.666V95.4943L108.833 95.4942ZM52.2057 56.5916C52.2057 56.727 52.221 56.8602 52.227 56.9949H45.8341C43.9012 56.9949 42.3342 55.428 42.3342 53.4949C42.3342 51.5619 43.9012 49.995 45.8341 49.995C46.1435 49.9951 46.4403 49.8722 46.6592 49.6533C46.878 49.4346 47.0009 49.1378 47.0009 48.8282C46.9948 45.7836 49.3358 43.2486 52.3714 43.0126C55.4069 42.7765 58.1115 44.9193 58.5764 47.9282C54.7713 49.0905 52.1809 52.6131 52.2057 56.5916ZM62.1672 108.327H59.8339V96.9601C60.252 96.5707 60.6419 96.1521 61.0005 95.7073C61.3591 96.1521 61.749 96.5707 62.1671 96.9599L62.1672 108.327ZM62.3089 93.5024L69.9919 85.8192C70.4405 85.3624 70.4371 84.6296 69.9845 84.1769C69.532 83.7243 68.7991 83.721 68.3423 84.1696L62.1672 90.3445V78.4775L67.6586 72.9862C68.1092 72.5298 68.107 71.7952 67.6534 71.3416C67.1999 70.8881 66.4653 70.8858 66.0088 71.3364L62.1671 75.1781V69.828C62.1671 69.1837 61.6447 68.6614 61.0005 68.6614C60.3561 68.6614 59.8339 69.1838 59.8339 69.828V75.1781L55.9922 71.3364C55.5358 70.8858 54.8012 70.8881 54.3476 71.3416C53.894 71.7951 53.8918 72.5297 54.3424 72.9862L59.8337 78.4777V90.3446L53.6587 84.1696C53.2023 83.7189 52.4677 83.7213 52.0141 84.1748C51.5606 84.6282 51.5583 85.363 52.0089 85.8193L59.692 93.5024C57.984 96.186 55.0275 97.8158 51.8465 97.8275C46.5094 97.7336 42.2546 93.3384 42.3339 88.001C42.2844 83.7802 44.9523 80.0052 48.9476 78.6428C49.3338 78.5155 49.6258 78.1963 49.7182 77.8002C49.8107 77.4042 49.6899 76.9887 49.4 76.7036C47.7963 75.1293 46.8983 72.9729 46.9106 70.7257C46.8343 66.2741 50.3549 62.5901 54.8055 62.4646C55.2871 62.5071 55.7474 62.2578 55.9749 61.8311C56.1738 61.439 56.1349 60.9683 55.8742 60.6143C55.0094 59.4511 54.5413 58.0409 54.5389 56.5914C54.482 52.9627 57.3719 49.9722 61.0003 49.9049C64.6289 49.9722 67.5188 52.9627 67.4618 56.5914C67.4594 58.0409 66.9913 59.4511 66.1265 60.6143C65.8711 60.9713 65.8391 61.4417 66.044 61.83C66.2501 62.2239 66.6584 62.4702 67.103 62.4691C71.5857 62.5498 75.158 66.2426 75.0901 70.7257C75.1024 72.9729 74.2043 75.1293 72.6007 76.7036C72.3106 76.9887 72.19 77.4042 72.2825 77.8002C72.3749 78.1963 72.6669 78.5155 73.0531 78.6428C77.5339 80.2096 80.2653 84.7434 79.556 89.4368C78.8468 94.1303 74.8978 97.6547 70.1542 97.8275C66.9732 97.8158 64.0169 96.186 62.3089 93.5024ZM105.333 108.327H86.6668V104.827H105.333V108.327ZM105.333 102.494H86.6668V101.327H105.333V102.494ZM105.333 98.9941H86.6668V95.4942H105.333V98.9941Z"/>
</mask>
<path d="M108.833 95.4942C109.477 95.4942 110 94.9718 110 94.3276C110 93.6832 109.477 93.161 108.833 93.161H107.666C107.666 92.5166 107.144 91.9944 106.5 91.9944C105.855 91.9944 105.333 92.5166 105.333 93.161H86.6668C86.6668 92.5166 86.1444 91.9944 85.5002 91.9944C84.8559 91.9944 84.3336 92.5166 84.3336 93.161H83.167C82.5226 93.161 82.0004 93.6834 82.0004 94.3276C82.0004 94.9719 82.5226 95.4942 83.167 95.4942H84.3336V98.9941H83.167C82.5226 98.9941 82.0004 99.5164 82.0004 100.161C82.0004 100.805 82.5226 101.327 83.167 101.327H84.3336V102.494H83.167C82.5226 102.494 82.0004 103.016 82.0004 103.661C82.0004 104.305 82.5226 104.827 83.167 104.827H84.3336V108.327H64.5004V98.6749C66.2262 99.6474 68.1733 100.159 70.1542 100.161C76.7795 100.065 82.0779 94.6263 82.0001 88.0008C82.0361 83.3944 79.4638 79.1637 75.3573 77.076C76.7092 75.2356 77.4335 73.0091 77.4235 70.7256C77.4641 65.6858 73.9288 61.3234 68.9898 60.3191C70.2395 57.5632 70.0247 54.3643 68.4176 51.8003C66.8107 49.2362 64.0255 47.6483 61.0003 47.5716C60.9658 47.5716 60.9324 47.5765 60.8979 47.5769C60.2768 43.5619 56.7978 40.6149 52.7354 40.6622C48.673 40.7095 45.2637 43.7369 44.7363 47.7653C41.7821 48.3316 39.7427 51.0514 40.027 54.046C40.3112 57.0407 42.826 59.3281 45.8341 59.3282H52.6345C52.7398 59.6637 52.8646 59.9928 53.0083 60.3137C48.0696 61.3214 44.536 65.6854 44.5774 70.7257C44.5674 73.0093 45.2918 75.2357 46.6435 77.0762C42.5372 79.164 39.9649 83.3945 40.0008 88.0009C39.9229 94.6263 45.2215 100.065 51.8468 100.161C53.8277 100.159 55.7748 99.6476 57.5005 98.675V108.327H41.1676C40.5232 108.327 40.001 108.849 40.001 109.494C40.001 110.138 40.5232 110.66 41.1676 110.66H108.833C109.477 110.66 110 110.138 110 109.494C110 108.849 109.477 108.327 108.833 108.327H107.666V104.827H108.833C109.477 104.827 110 104.305 110 103.661C110 103.016 109.477 102.494 108.833 102.494H107.666V101.327H108.833C109.477 101.327 110 100.805 110 100.161C110 99.5165 109.477 98.9943 108.833 98.9943H107.666V95.4943L108.833 95.4942ZM52.2057 56.5916C52.2057 56.727 52.221 56.8602 52.227 56.9949H45.8341C43.9012 56.9949 42.3342 55.428 42.3342 53.4949C42.3342 51.5619 43.9012 49.995 45.8341 49.995C46.1435 49.9951 46.4403 49.8722 46.6592 49.6533C46.878 49.4346 47.0009 49.1378 47.0009 48.8282C46.9948 45.7836 49.3358 43.2486 52.3714 43.0126C55.4069 42.7765 58.1115 44.9193 58.5764 47.9282C54.7713 49.0905 52.1809 52.6131 52.2057 56.5916ZM62.1672 108.327H59.8339V96.9601C60.252 96.5707 60.6419 96.1521 61.0005 95.7073C61.3591 96.1521 61.749 96.5707 62.1671 96.9599L62.1672 108.327ZM62.3089 93.5024L69.9919 85.8192C70.4405 85.3624 70.4371 84.6296 69.9845 84.1769C69.532 83.7243 68.7991 83.721 68.3423 84.1696L62.1672 90.3445V78.4775L67.6586 72.9862C68.1092 72.5298 68.107 71.7952 67.6534 71.3416C67.1999 70.8881 66.4653 70.8858 66.0088 71.3364L62.1671 75.1781V69.828C62.1671 69.1837 61.6447 68.6614 61.0005 68.6614C60.3561 68.6614 59.8339 69.1838 59.8339 69.828V75.1781L55.9922 71.3364C55.5358 70.8858 54.8012 70.8881 54.3476 71.3416C53.894 71.7951 53.8918 72.5297 54.3424 72.9862L59.8337 78.4777V90.3446L53.6587 84.1696C53.2023 83.7189 52.4677 83.7213 52.0141 84.1748C51.5606 84.6282 51.5583 85.363 52.0089 85.8193L59.692 93.5024C57.984 96.186 55.0275 97.8158 51.8465 97.8275C46.5094 97.7336 42.2546 93.3384 42.3339 88.001C42.2844 83.7802 44.9523 80.0052 48.9476 78.6428C49.3338 78.5155 49.6258 78.1963 49.7182 77.8002C49.8107 77.4042 49.6899 76.9887 49.4 76.7036C47.7963 75.1293 46.8983 72.9729 46.9106 70.7257C46.8343 66.2741 50.3549 62.5901 54.8055 62.4646C55.2871 62.5071 55.7474 62.2578 55.9749 61.8311C56.1738 61.439 56.1349 60.9683 55.8742 60.6143C55.0094 59.4511 54.5413 58.0409 54.5389 56.5914C54.482 52.9627 57.3719 49.9722 61.0003 49.9049C64.6289 49.9722 67.5188 52.9627 67.4618 56.5914C67.4594 58.0409 66.9913 59.4511 66.1265 60.6143C65.8711 60.9713 65.8391 61.4417 66.044 61.83C66.2501 62.2239 66.6584 62.4702 67.103 62.4691C71.5857 62.5498 75.158 66.2426 75.0901 70.7257C75.1024 72.9729 74.2043 75.1293 72.6007 76.7036C72.3106 76.9887 72.19 77.4042 72.2825 77.8002C72.3749 78.1963 72.6669 78.5155 73.0531 78.6428C77.5339 80.2096 80.2653 84.7434 79.556 89.4368C78.8468 94.1303 74.8978 97.6547 70.1542 97.8275C66.9732 97.8158 64.0169 96.186 62.3089 93.5024ZM105.333 108.327H86.6668V104.827H105.333V108.327ZM105.333 102.494H86.6668V101.327H105.333V102.494ZM105.333 98.9941H86.6668V95.4942H105.333V98.9941Z" fill="#E55670" stroke="#FDF3F5" mask="url(#path-2-inside-1_66_461)"/>
<path d="M105.016 58.2977L105.04 58.4767L105.217 58.5107C108.045 59.0525 109.997 61.6558 109.725 64.5221C109.453 67.3884 107.046 69.5778 104.167 69.5779H90.1668C87.2876 69.5778 84.8806 67.3884 84.6085 64.5221C84.3365 61.6558 86.2885 59.0525 89.1162 58.5107L89.2935 58.4767L89.317 58.2977C89.8345 54.3575 93.1927 51.4116 97.1667 51.4116C101.141 51.4116 104.499 54.3575 105.016 58.2977ZM90.1669 60.2447H90.1668C88.0957 60.2447 86.4172 61.9236 86.4172 63.9946C86.4172 66.0657 88.0961 67.7446 90.1671 67.7446H104.167C106.238 67.7446 107.917 66.0656 107.917 63.9946C107.917 61.9237 106.238 60.2447 104.167 60.2447C103.924 60.2447 103.69 60.1481 103.519 59.9763C103.347 59.8043 103.25 59.5711 103.25 59.3281V59.328C103.25 55.9682 100.526 53.2447 97.1668 53.2447C93.8072 53.2447 91.0836 55.9683 91.0836 59.328C91.0836 59.5712 90.987 59.8044 90.8151 59.9763C90.6431 60.1483 90.4099 60.2448 90.1669 60.2447Z" fill="#E55670" stroke="#FDF3F5" stroke-width="0.5"/>
</g>
<defs>
<clipPath id="clip0_66_461">
<rect width="70" height="70" fill="white" transform="translate(40 40.6611)"/>
</clipPath>
</defs>
</svg>
