<svg width="16" height="17" fill="none" xmlns="http://www.w3.org/2000/svg"><g clip-path="url(#clip0_90_41)"><path d="M10.514 10.528l-1.222 1.529a12.9 12.9 0 01-4.584-4.584L6.236 6.25a1.039 1.039 0 00.3-1.232L5.143 1.882a1.038 1.038 0 00-1.21-.584l-2.65.688A1.044 1.044 0 00.51 3.139a15.408 15.408 0 0013.115 13.115 1.044 1.044 0 001.153-.77l.688-2.65a1.038 1.038 0 00-.583-1.21l-3.137-1.395a1.039 1.039 0 00-1.232.3z" fill="#798993"/></g><defs><clipPath id="clip0_90_41"><path fill="#fff" transform="translate(0 .764)" d="M0 0h16v16H0z"/></clipPath></defs></svg>