<svg width="120" height="121" fill="none" xmlns="http://www.w3.org/2000/svg"><rect y=".529" width="120" height="120" rx="60" fill="#FDF3F5"/><g clip-path="url(#clip0_153_655)" fill="#E55670" stroke="#fff" stroke-width=".514"><path d="M40.34 71.992l-2.474-5.773a3.451 3.451 0 00-6.314 2.788c4.557 10.025 4.779 11.11 6.8 13.13l8.1 8.1a1 1 0 00.707.293h10.84a1 1 0 001-1 25.209 25.209 0 00-.33-6.065c.885.084 1.776.084 2.662 0-.431 1.83-.331 2.954-.331 6.064a1 1 0 001 1h10.845a1 1 0 00.707-.293l8.1-8.1c2.018-2.02 2.179-2.971 6.8-13.13a3.451 3.451 0 00-6.314-2.788l-2.478 5.774a5.078 5.078 0 00-3.982-.783 30.01 30.01 0 001.176-3.48c1.985-.4 6.794-2.143 6.794-9.7 0-2.561-.446-5.717-2.993-6.065A27.187 27.187 0 0084.7 33.137l-.4-1.825a1 1 0 00-.981-.783H36.68a1 1 0 00-.976.783l-.42 1.9a27.146 27.146 0 004.063 18.762c-2.522.376-2.96 3.523-2.96 6.059 0 7.56 4.814 9.3 6.8 9.7a30.21 30.21 0 001.182 3.49 5.068 5.068 0 00-4.03.769zM57 88.529h-9.431l-7.8-7.806c-1.633-1.63-1.631-2.061-6.396-12.544a1.451 1.451 0 112.655-1.172c4.05 9.454 2.476 7.15 10.42 15.1a1 1 0 101.414-1.414c-5.478-5.477-5.737-5.63-6.572-6.908a3.031 3.031 0 013.865-.006 23.804 23.804 0 007.106 4.5C54.6 79.056 57 82.087 57 86.329v2.2zm.957-7.175a8.94 8.94 0 00-5.063-4.974 19.652 19.652 0 01-5.4-3.28c-3.436-6.088-3.878-13.425-3.883-20.416C45.73 48.95 51.288 40.337 60 35.082c8.73 5.294 14.3 13.92 16.426 17.664-.016 7.1-.44 14.1-3.832 20.287a19.876 19.876 0 01-5.487 3.347 8.948 8.948 0 00-5.066 4.98 13.398 13.398 0 01-4.084-.006zM78.71 73.78c-.831 1.274-1.072 1.408-6.572 6.908a1 1 0 001.414 1.414c7.868-7.867 6.367-5.636 10.42-15.095a1.451 1.451 0 112.655 1.172c-4.694 10.327-4.723 10.875-6.39 12.544l-7.806 7.806H63v-2.2a9.618 9.618 0 011.99-6.011c2.345-2.932 3.093-.847 9.855-6.54a3.031 3.031 0 013.865.002zm2.938-15.751c0 5.035-2.441 6.837-4.256 7.483A57.504 57.504 0 0078.4 54.71c.925-.657 1.745-.931 2.2-.711.245.118 1.048.76 1.048 4.029zm.87-25.5a24.811 24.811 0 01-4.1 19.176c-.094-7.47-2.067-12.586-6.033-15.62a1 1 0 00-1.215 1.589c2.89 2.21 4.548 5.829 5.065 10.95-4.01-6.09-10.203-12.577-16.665-16.095h22.949zm-45.035 0h13.639a26.042 26.042 0 00-5.9 5.375 1 1 0 101.562 1.25 24.185 24.185 0 018.247-6.543c1.016.4 2.01.851 2.979 1.354-8.394 5.404-13.755 13.477-16.271 17.964a24.747 24.747 0 01-4.256-19.4zm.906 25.5c0-3.273.8-3.915 1.05-4.033.446-.215 1.283.063 2.2.71a57.507 57.507 0 001.009 10.807c-1.815-.642-4.26-2.443-4.26-7.484z"/><path d="M48.447 52.264a4.374 4.374 0 013.358-.238l3.879 1.293a1.001 1.001 0 00.632-1.9l-3.88-1.29a6.362 6.362 0 00-4.883.347 1 1 0 10.894 1.788zM64 53.37c.233 0 0 .055 4.2-1.344a4.364 4.364 0 013.358.238 1 1 0 10.894-1.79 6.365 6.365 0 00-4.885-.346l-3.878 1.293a1 1 0 00.31 1.949zm-8.056 3.838a1 1 0 00-1.266-.626c-.034.01-3.444 1.123-6.078-.853a1 1 0 00-1.3.09 2.485 2.485 0 01-1.3.71 1 1 0 000 2 3.726 3.726 0 002.059-.757c.15.09.3.17.454.247a1.77 1.77 0 01-.514.51 1 1 0 00-1 1c0 1.229 1.847 1.7 3.473-.82 1.612.33 3.28.25 4.852-.234a1 1 0 00.62-1.267zM71.4 55.729c-2.621 1.965-6.008.877-6.078.853a1 1 0 00-.646 1.893 9.798 9.798 0 004.85.235c.509.789 1.38 1.819 2.474 1.819a1.017 1.017 0 001.022-1 .979.979 0 00-.98-1 1.647 1.647 0 01-.551-.517c.15-.077.3-.155.45-.245a3.73 3.73 0 002.059.762 1 1 0 100-2 2.482 2.482 0 01-1.293-.707 1 1 0 00-1.307-.093zM56.445 65.36a6.393 6.393 0 007.11 0 1 1 0 10-1.11-1.663 4.4 4.4 0 01-4.89 0 1 1 0 00-1.11 1.664zM66 71.329a1.214 1.214 0 00-1.3-1.2c-.83 0-3.284-1.6-4.7-1.6-1.437 0-3.856 1.6-4.696 1.6a1.215 1.215 0 00-1.305 1.2c0 1.41 2.825 3.2 6 3.2s6-1.79 6-3.2zm-6-.8c1.076.315 2.122.726 3.124 1.228a6.713 6.713 0 01-6.25 0A18.583 18.583 0 0160 70.529zm1 6h-2a1 1 0 100 2h2a1 1 0 100-2zm-18-34a1 1 0 100-2 1 1 0 000 2z"/></g><defs><clipPath id="clip0_153_655"><path fill="#fff" transform="translate(30 30.529)" d="M0 0h60v60H0z"/></clipPath></defs></svg>