<svg width="150" height="151" fill="none" xmlns="http://www.w3.org/2000/svg"><rect y=".661" width="150" height="150" rx="75" fill="#E55670" fill-opacity=".05"/><g clip-path="url(#clip0_66_518)" fill="#E55670" stroke="#FDF3F5" stroke-width=".6"><path d="M78.792 69.38c-.567 0-1.027.46-1.027 1.028v2.212a1.027 1.027 0 102.055 0v-2.212c0-.568-.46-1.028-1.028-1.028zm9.562 0c-.567 0-1.027.46-1.027 1.028v2.212a1.027 1.027 0 102.055 0v-2.212c0-.568-.46-1.028-1.028-1.028z"/><path d="M106.233 40.661h-44.92a3.771 3.771 0 00-3.767 3.767v6.851l-.185-.002c-7.48 0-12.562 4.126-15.105 12.263a1.027 1.027 0 001.96.613c2.277-7.282 6.576-10.822 13.145-10.822 5.525 0 9.411 2.482 11.882 7.588 2.11 4.361 2.672 9.613 3.044 13.088l.052.486c.397 3.672 1.06 9.817-2.45 13.728a7.58 7.58 0 01-.194.208l-.005.005c-2.461 2.57-6.606 3.873-12.329 3.873-5.879 0-10.094-1.375-12.528-4.086-3.51-3.91-2.846-10.056-2.449-13.728l.052-.485c.18-1.677.402-3.765.825-5.975a1.028 1.028 0 00-2.019-.385c-.437 2.293-.665 4.427-.849 6.142l-.052.482c-.41 3.805-1.082 10.041 2.366 14.593a13.031 13.031 0 00-2.371 7.542v13.227c0 .567.46 1.027 1.027 1.027H72.89c.567 0 1.028-.46 1.028-1.027v-6.312h6.609a1.027 1.027 0 100-2.054h-6.61v-2.192h29.565a2.4 2.4 0 002.397-2.397V47.305a2.4 2.4 0 00-2.397-2.397H94.07a1.027 1.027 0 000 2.055h9.412c.189 0 .342.153.342.342V96.68a.342.342 0 01-.342.342h-3.118v-.614a13.11 13.11 0 00-2.157-7.22c3.735-4.573 3.044-11.002 2.621-14.915l-.052-.483c-.386-3.617-.971-9.082-3.237-13.765-2.809-5.804-7.428-8.747-13.731-8.747-5.94 0-10.379 2.613-13.222 7.77-1.714-3.11-4.01-5.294-6.864-6.538v-5.204c0-.189.153-.343.342-.343h25.897a1.027 1.027 0 000-2.054H64.064a2.4 2.4 0 00-2.397 2.397V51.8a15.699 15.699 0 00-2.067-.392v-6.98c0-.945.768-1.713 1.712-1.713h44.921c.944 0 1.713.768 1.713 1.712v55.127c0 .945-.769 1.713-1.713 1.713H84.636a1.027 1.027 0 100 2.055h21.597A3.772 3.772 0 00110 99.556V44.427a3.771 3.771 0 00-3.767-3.767zm-34.37 67.945H67.69v-8.717a1.027 1.027 0 10-2.055 0v8.717H48.617v-8.717a1.027 1.027 0 10-2.054 0v8.717H42.39v-12.2a11 11 0 011.744-5.981c2.894 2.613 7.335 3.937 13.227 3.937 5.69 0 10.026-1.234 12.923-3.671a11.03 11.03 0 011.579 5.716v12.199h0zm26.447-12.2v.615H73.917v-.614a13.07 13.07 0 00-2.152-7.22c.281-.344.536-.7.769-1.065a11.09 11.09 0 016.4-2.799c.013.295.037.63.082.987.204 1.645.719 2.922 1.528 3.795.776.837 1.823 1.279 3.03 1.279 1.206 0 2.253-.442 3.029-1.279.81-.873 1.323-2.15 1.528-3.795.044-.356.069-.69.08-.985 5.656.523 10.099 5.292 10.099 11.082zM83.573 83.222c-4.874 0-8.84-3.966-8.84-8.84v-5.456c2.296-.44 8.443-1.926 11.87-5.678 1.007 1.636 2.966 4.246 5.81 5.51v5.623c0 4.875-3.966 8.84-8.84 8.84zm2.587 2.054c-.052 1.084-.296 2.607-1.066 3.436-.393.422-.876.618-1.52.618-.646 0-1.129-.196-1.521-.618-.771-.829-1.015-2.353-1.066-3.436h5.173zm-8.622-1.83a13.13 13.13 0 00-3.462 1.163c.36-1.302.543-2.636.612-3.935a10.98 10.98 0 002.85 2.772zm6.27-30.113c5.525 0 9.411 2.481 11.882 7.587 2.11 4.361 2.672 9.613 3.043 13.088l.052.486c.482 4.458.749 9.445-1.88 13.021a13.18 13.18 0 00-7.297-4.068c2.927-1.956 4.86-5.289 4.86-9.066v-6.32c0-.438-.278-.827-.69-.97-3.826-1.33-6.065-6.07-6.094-6.133a1.028 1.028 0 00-1.794-.129c-3.152 4.857-12.236 6.202-12.327 6.215a1.03 1.03 0 00-.192.046c-.382-1.873-.909-3.82-1.668-5.687 2.451-5.428 6.415-8.07 12.105-8.07z"/><path d="M86.762 75.075c-.43 0-.797.264-.95.639h0c-.046.097-.49.946-1.998.946-1.507 0-1.951-.85-1.997-.946h0a1.027 1.027 0 10-1.89.804h0c.036.09.938 2.197 3.887 2.197s3.85-2.107 3.887-2.197h0a1.027 1.027 0 00-.939-1.443z"/></g><defs><clipPath id="clip0_66_518"><path fill="#fff" transform="translate(40 40.661)" d="M0 0h70v70H0z"/></clipPath></defs></svg>