<svg width="150" height="151" fill="none" xmlns="http://www.w3.org/2000/svg"><rect y=".661" width="150" height="150" rx="75" fill="#E55670" fill-opacity=".05"/><g clip-path="url(#clip0_66_563)" fill="#E55670" stroke="#FDF3F5" stroke-width=".5"><path d="M96.373 96.124c-.677-.155-1.316-.302-1.913-.45-.156-.038-.225-.112-.242-.138V89.78a23.269 23.269 0 002.212-1.944c2.356-2.35 4.086-5.068 5.108-7.963 3.786-2.465 5.629-6.485 5.629-12.278 0-5.906-1.465-11.275-4.237-15.528a1.024 1.024 0 10-1.718 1.12c2.554 3.919 3.904 8.9 3.904 14.408 0 3.837-.892 6.757-2.713 8.843a18.33 18.33 0 00.214-2.78c0-8.165-1.636-13.882-5.002-17.478-2.74-2.927-6.553-4.35-11.66-4.35h-.024c-11.114.01-16.75 7.353-16.75 21.827 0 .933.074 1.862.215 2.781-1.82-2.086-2.713-5.006-2.713-8.843 0-15.544 9.651-22.502 19.216-22.502 4.946 0 9.127 1.561 12.427 4.64a1.025 1.025 0 101.399-1.5c-3.64-3.396-8.421-5.19-13.826-5.19-6.561 0-12.061 2.577-15.904 7.454-3.458 4.387-5.363 10.46-5.363 17.098 0 5.793 1.843 9.814 5.629 12.28a20.342 20.342 0 002.132 4.304l-4.748 2.741a3.482 3.482 0 00-3.229-.816l-3.668.95-.16-.277a2.184 2.184 0 00-2.98-.798l-2.92 1.685a8.54 8.54 0 00-2.998 2.918 6.43 6.43 0 01-2.996 2.573l-1.28.54a1.025 1.025 0 00.797 1.89l1.28-.54a8.468 8.468 0 003.947-3.39 6.485 6.485 0 012.276-2.215l2.92-1.685a.131.131 0 01.178.048l4.678 8.101a.131.131 0 01-.048.18l-2.92 1.685a6.482 6.482 0 01-3.056.864 8.47 8.47 0 00-4.909 1.722l-6 4.542a.83.83 0 01-1.22-.246l-3.175-5.501a.83.83 0 01.396-1.18l1.246-.526a1.025 1.025 0 00-.797-1.89l-1.246.527a2.883 2.883 0 00-1.375 4.094l3.176 5.501a2.881 2.881 0 004.233.856l6-4.541a6.421 6.421 0 013.727-1.308 8.548 8.548 0 004.026-1.138l2.919-1.685a2.185 2.185 0 00.799-2.98l-.16-.278 2.657-2.701a3.482 3.482 0 00.907-3.204l4.926-2.845a23.188 23.188 0 003.985 3.929v5.755c-.016.026-.086.1-.242.138-.599.148-1.238.295-1.914.45-5.75 1.324-13.626 3.136-13.626 9.534v.674c0 1.074.969 1.948 2.16 1.948h43.882c1.191 0 2.159-.874 2.159-1.948v-.674c0-6.399-7.876-8.21-13.627-9.534zM66.3 90.462l-2.26 2.297-2.229-3.862 3.119-.808c1.39-.36 2.378 1.348 1.37 2.373zm5.064-20.379c4.348-1.25 9.355-1.91 14.534-1.91 5.185 0 10.194.662 14.542 1.914.054.744.091 1.513.11 2.308l-2.814 1.875a3.787 3.787 0 01-2.103.637h-4.26c-.851 0-1.63-.5-1.985-1.273l-.383-.836c-1.214-2.646-4.994-2.658-6.215.001l-.38.834a2.19 2.19 0 01-1.986 1.274h-4.26c-.75 0-1.478-.22-2.103-.636l-2.813-1.876c.02-.796.058-1.566.116-2.311zm4.496-12.488c2.393-2.496 5.688-3.71 10.072-3.715h.021c4.509 0 7.833 1.211 10.164 3.701 2.133 2.28 3.506 5.738 4.103 10.317-4.342-1.163-9.256-1.775-14.322-1.775-5.055 0-9.963.61-14.302 1.769.624-4.537 2.051-7.988 4.264-10.297zm-.464 27.217l.642-.37a1.025 1.025 0 10-1.026-1.776l-.837.483c-1.387-2.107-2.646-4.895-2.897-8.269l1.646 1.098c.964.64 2.084.98 3.24.98h4.26c1.65 0 3.122-.988 3.85-2.471.313-.639.374-1.086.884-1.414a1.37 1.37 0 011.983.579l.382.836a4.25 4.25 0 003.85 2.47h4.26a5.832 5.832 0 003.24-.98l1.645-1.098c-.415 5.583-3.591 9.563-5.537 11.505-3.333 3.325-7.044 4.84-9.083 4.84-2.038 0-5.75-1.515-9.082-4.84a20.697 20.697 0 01-1.42-1.573zm32.552 21.4a.33.33 0 01-.108.017H63.958a.331.331 0 01-.108-.017v-.555c0-4.765 6.673-6.3 12.034-7.534.685-.157 1.332-.306 1.948-.458 1.06-.263 1.8-1.133 1.8-2.115v-4.364c2.197 1.323 4.42 2.09 6.267 2.09 1.848 0 4.071-.767 6.268-2.09v4.364c0 .982.74 1.852 1.8 2.115.615.152 1.262.3 1.946.458 5.362 1.233 12.036 2.769 12.036 7.534v.555h0z"/><path d="M89.935 83.377a1.025 1.025 0 00-.88-1.852c-2.123 1.008-4.188 1.008-6.312 0a1.025 1.025 0 10-.88 1.852c1.34.636 2.688.954 4.037.954 1.348 0 2.696-.318 4.035-.954zm-43.738-4.301c2.174.72 3.01 1.556 3.73 3.73.243.735.9 1.21 1.671 1.21.772 0 1.428-.475 1.672-1.21.719-2.174 1.555-3.01 3.729-3.73a1.736 1.736 0 001.21-1.67c0-.773-.475-1.429-1.21-1.672-2.174-.72-3.01-1.556-3.73-3.73a1.737 1.737 0 00-1.67-1.21c-.773 0-1.429.475-1.672 1.21-.72 2.174-1.556 3.01-3.73 3.73-.735.243-1.21.9-1.21 1.671 0 .772.475 1.428 1.21 1.671zm5.401-5.668c.816 2.04 1.958 3.18 3.998 3.997-2.04.816-3.182 1.958-3.998 3.998-.816-2.04-1.957-3.182-3.997-3.998 2.04-.816 3.181-1.957 3.997-3.997zm.035-11.534c2.138.634 2.775 1.271 3.409 3.41.187.633.757 1.06 1.417 1.06s1.23-.426 1.417-1.06c.633-2.139 1.27-2.776 3.41-3.41a1.469 1.469 0 001.059-1.417c0-.66-.426-1.23-1.06-1.417-2.138-.633-2.776-1.27-3.409-3.409a1.469 1.469 0 00-1.417-1.06c-.66 0-1.23.426-1.417 1.06-.634 2.138-1.271 2.776-3.41 3.41a1.469 1.469 0 00-1.06 1.416c0 .66.426 1.23 1.06 1.417zm4.826-4.165c.609 1.317 1.431 2.14 2.748 2.748-1.317.61-2.14 1.432-2.748 2.748-.609-1.316-1.432-2.139-2.748-2.748 1.316-.608 2.139-1.431 2.748-2.748z"/></g><defs><clipPath id="clip0_66_563"><path fill="#fff" transform="translate(40 40.661)" d="M0 0h70v70H0z"/></clipPath></defs></svg>