<svg width="150" height="151" fill="none" xmlns="http://www.w3.org/2000/svg"><rect y=".661" width="150" height="150" rx="75" fill="#E55670" fill-opacity=".05"/><g clip-path="url(#clip0_66_530)" fill="#E55670" stroke="#FDF3F5" stroke-width=".3"><path d="M80.205 40.82h.007l26.625 2.004.011-.15-.011.15c.558.042.985.5.999 1.048h0v.007l2.007 26.624a1.08 1.08 0 01-.314.846l-37.223 37.223c-1.347 1.347-3.154 1.988-4.981 1.932a7.45 7.45 0 01-5.031-2.192L42.345 88.363a7.448 7.448 0 01-2.192-5.03l-.15.004.15-.005c-.056-1.827.585-3.634 1.932-4.981l37.223-37.223a1.08 1.08 0 01.897-.309zm25.554 4.216l-.009-.129-.129-.01-25.065-1.887-.069-.005-.049.049-36.825 36.825c-.915.915-1.346 2.149-1.308 3.395a5.281 5.281 0 001.568 3.561l19.949 19.949a5.284 5.284 0 003.56 1.568c1.247.038 2.481-.393 3.396-1.308l36.825-36.825.049-.05-.005-.068-1.888-25.065z"/><path d="M82.688 80.307a1.08 1.08 0 01-1.08 1.08H59.1a1.08 1.08 0 010-2.16h22.506c.597 0 1.08.483 1.08 1.08zM75.85 70.97a5.478 5.478 0 01-1.61 3.885 5.478 5.478 0 01-3.886 1.61 5.479 5.479 0 01-3.886-1.61 5.478 5.478 0 01-1.61-3.886c0-1.517.616-2.891 1.61-3.886a5.479 5.479 0 013.886-1.61 5.48 5.48 0 013.886 1.61 5.479 5.479 0 011.61 3.886zm-3.138 2.357a3.325 3.325 0 00.977-2.358c0-.92-.374-1.755-.977-2.358a3.325 3.325 0 00-2.358-.976c-.92 0-1.754.373-2.358.976a3.326 3.326 0 00-.976 2.358c0 .921.373 1.755.976 2.358a3.325 3.325 0 002.358.977c.921 0 1.755-.374 2.358-.977zm3.138 16.318a5.478 5.478 0 01-1.61 3.886 5.479 5.479 0 01-3.886 1.61 5.478 5.478 0 01-3.886-1.61 5.478 5.478 0 01-1.61-3.886 5.48 5.48 0 011.61-3.886 5.479 5.479 0 013.886-1.61c1.518 0 2.892.615 3.886 1.61a5.478 5.478 0 011.61 3.886zm-3.138 2.358a3.325 3.325 0 00.977-2.358c0-.921-.374-1.755-.977-2.358a3.325 3.325 0 00-2.358-.977c-.92 0-1.754.373-2.358.977a3.326 3.326 0 00-.976 2.358c0 .92.373 1.755.976 2.358a3.325 3.325 0 002.358.976c.921 0 1.755-.373 2.358-.976zM43.501 76.94a1.08 1.08 0 011.528 0l28.693 28.692a1.08 1.08 0 01-1.528 1.528L43.5 78.468a1.08 1.08 0 010-1.529zm56.234-20.518a5.479 5.479 0 01-1.61 3.886 5.479 5.479 0 01-3.886 1.61 5.478 5.478 0 01-3.886-1.61 5.478 5.478 0 01-1.61-3.886c0-1.517.616-2.891 1.61-3.886a5.478 5.478 0 013.886-1.61c1.518 0 2.892.615 3.886 1.61a5.479 5.479 0 011.61 3.886zm-3.138 2.358a3.325 3.325 0 00.977-2.358c0-.92-.374-1.755-.977-2.358a3.325 3.325 0 00-2.358-.977c-.92 0-1.755.374-2.358.977a3.325 3.325 0 00-.976 2.358c0 .92.373 1.755.976 2.358a3.326 3.326 0 002.358.977c.921 0 1.755-.374 2.358-.977z"/></g><defs><clipPath id="clip0_66_530"><path fill="#fff" transform="translate(40 40.661)" d="M0 0h70v70H0z"/></clipPath></defs></svg>